<svg width="546" height="567" viewBox="0 0 546 567" fill="none" xmlns="http://www.w3.org/2000/svg">
    <path d="M389.005 77.3115C393.533 77.3115 397.172 73.7771 397.172 69.4564C397.172 65.1357 393.533 61.6013 389.005 61.6013C384.477 61.6013 380.836 65.1359 380.836 69.4564C380.836 73.7769 384.477 77.3115 389.005 77.3115Z" fill="white" stroke="black"/>
    <path d="M367.876 77.3115C372.404 77.3115 376.042 73.7771 376.042 69.4564C376.042 65.1357 372.404 61.6013 367.876 61.6013C363.348 61.6013 359.706 65.1359 359.706 69.4564C359.706 73.7769 363.348 77.3115 367.876 77.3115Z" fill="white" stroke="black"/>
    <path d="M346.746 77.3115C351.274 77.3115 354.912 73.7771 354.912 69.4564C354.912 65.1357 351.274 61.6013 346.746 61.6013C342.218 61.6013 338.576 65.1359 338.576 69.4564C338.576 73.7769 342.218 77.3115 346.746 77.3115Z" fill="white" stroke="black"/>
    <path d="M325.616 77.3115C330.144 77.3115 333.782 73.7771 333.782 69.4564C333.782 65.1357 330.144 61.6013 325.616 61.6013C321.088 61.6013 317.446 65.1359 317.446 69.4564C317.446 73.7769 321.088 77.3115 325.616 77.3115Z" fill="white" stroke="black"/>
    <path d="M304.487 77.3115C309.014 77.3115 312.653 73.7771 312.653 69.4564C312.653 65.1357 309.014 61.6013 304.487 61.6013C299.958 61.6013 296.317 65.1359 296.317 69.4564C296.317 73.7769 299.958 77.3115 304.487 77.3115Z" fill="white" stroke="black"/>
    <path d="M304.487 56.9463C309.014 56.9463 312.653 53.4119 312.653 49.0912C312.653 44.7705 309.014 41.236 304.487 41.236C299.958 41.236 296.317 44.7707 296.317 49.0912C296.317 53.4116 299.958 56.9463 304.487 56.9463Z" fill="white" stroke="black"/>
    <path d="M283.356 77.3115C287.884 77.3115 291.523 73.7771 291.523 69.4564C291.523 65.1357 287.884 61.6013 283.356 61.6013C278.828 61.6013 275.187 65.1359 275.187 69.4564C275.187 73.7769 278.828 77.3115 283.356 77.3115Z" fill="white" stroke="black"/>
    <path d="M262.227 77.3115C266.755 77.3115 270.394 73.7771 270.394 69.4564C270.394 65.1357 266.755 61.6013 262.227 61.6013C257.699 61.6013 254.058 65.1359 254.058 69.4564C254.058 73.7769 257.699 77.3115 262.227 77.3115Z" fill="white" stroke="black"/>
    <path d="M241.098 77.3115C245.626 77.3115 249.265 73.7771 249.265 69.4564C249.265 65.1357 245.626 61.6013 241.098 61.6013C236.57 61.6013 232.929 65.1359 232.929 69.4564C232.929 73.7769 236.57 77.3115 241.098 77.3115Z" fill="white" stroke="black"/>
    <path d="M241.097 56.9463C245.625 56.9463 249.263 53.4119 249.263 49.0912C249.263 44.7705 245.625 41.236 241.097 41.236C236.569 41.236 232.927 44.7707 232.927 49.0912C232.927 53.4116 236.569 56.9463 241.097 56.9463Z" fill="white" stroke="black"/>
    <path d="M219.967 56.9463C224.495 56.9463 228.134 53.4119 228.134 49.0912C228.134 44.7705 224.495 41.236 219.967 41.236C215.439 41.236 211.798 44.7707 211.798 49.0912C211.798 53.4116 215.439 56.9463 219.967 56.9463Z" fill="white" stroke="black"/>
    <path d="M198.839 56.9463C203.367 56.9463 207.005 53.4119 207.005 49.0912C207.005 44.7705 203.367 41.236 198.839 41.236C194.311 41.236 190.669 44.7707 190.669 49.0912C190.669 53.4116 194.311 56.9463 198.839 56.9463Z" fill="white" stroke="black"/>
    <path d="M198.839 36.5811C203.367 36.5811 207.005 33.0466 207.005 28.7259C207.005 24.4052 203.367 20.8708 198.839 20.8708C194.311 20.8708 190.669 24.4055 190.669 28.7259C190.669 33.0464 194.311 36.5811 198.839 36.5811Z" fill="white" stroke="black"/>
    <path d="M177.709 36.5811C182.237 36.5811 185.876 33.0466 185.876 28.7259C185.876 24.4052 182.237 20.8708 177.709 20.8708C173.181 20.8708 169.54 24.4055 169.54 28.7259C169.54 33.0464 173.181 36.5811 177.709 36.5811Z" fill="white" stroke="black"/>
    <path d="M177.709 16.2104C182.237 16.2104 185.876 12.676 185.876 8.35532C185.876 4.03462 182.237 0.500185 177.709 0.500185C173.181 0.500185 169.54 4.03486 169.54 8.35532C169.54 12.6758 173.181 16.2104 177.709 16.2104Z" fill="white" stroke="black"/>
    <path d="M156.58 36.5811C161.107 36.5811 164.746 33.0466 164.746 28.7259C164.746 24.4052 161.107 20.8708 156.58 20.8708C152.051 20.8708 148.41 24.4055 148.41 28.7259C148.41 33.0464 152.051 36.5811 156.58 36.5811Z" fill="white" stroke="black"/>
    <path d="M135.449 36.5811C139.977 36.5811 143.616 33.0466 143.616 28.7259C143.616 24.4052 139.977 20.8708 135.449 20.8708C130.921 20.8708 127.28 24.4055 127.28 28.7259C127.28 33.0464 130.921 36.5811 135.449 36.5811Z" fill="white" stroke="black"/>
    <path d="M114.32 36.5811C118.848 36.5811 122.487 33.0466 122.487 28.7259C122.487 24.4052 118.848 20.8708 114.32 20.8708C109.792 20.8708 106.151 24.4055 106.151 28.7259C106.151 33.0464 109.792 36.5811 114.32 36.5811Z" fill="white" stroke="black"/>
    <path d="M93.1897 36.5811C97.7176 36.5811 101.356 33.0466 101.356 28.7259C101.356 24.4052 97.7176 20.8708 93.1897 20.8708C88.6615 20.8708 85.02 24.4055 85.02 28.7259C85.02 33.0464 88.6615 36.5811 93.1897 36.5811Z" fill="white" stroke="black"/>
    <path d="M93.1897 56.9463C97.7176 56.9463 101.356 53.4119 101.356 49.0912C101.356 44.7705 97.7176 41.236 93.1897 41.236C88.6615 41.236 85.02 44.7707 85.02 49.0912C85.02 53.4116 88.6615 56.9463 93.1897 56.9463Z" fill="white" stroke="black"/>
    <path d="M72.0615 56.9463C76.5894 56.9463 80.2279 53.4119 80.2279 49.0912C80.2279 44.7705 76.5894 41.236 72.0615 41.236C67.5334 41.236 63.8918 44.7707 63.8918 49.0912C63.8918 53.4116 67.5334 56.9463 72.0615 56.9463Z" fill="white" stroke="black"/>
    <path d="M72.0615 77.3115C76.5894 77.3115 80.2279 73.7771 80.2279 69.4564C80.2279 65.1357 76.5894 61.6013 72.0615 61.6013C67.5334 61.6013 63.8918 65.1359 63.8918 69.4564C63.8918 73.7769 67.5334 77.3115 72.0615 77.3115Z" fill="white" stroke="black"/>
    <path d="M72.0615 97.6807C76.5894 97.6807 80.2279 94.1462 80.2279 89.8255C80.2279 85.5048 76.5894 81.9704 72.0615 81.9704C67.5334 81.9704 63.8918 85.5051 63.8918 89.8255C63.8918 94.146 67.5334 97.6807 72.0615 97.6807Z" fill="white" stroke="black"/>
    <path d="M50.9299 97.6807C55.4578 97.6807 59.0963 94.1462 59.0963 89.8255C59.0963 85.5048 55.4578 81.9704 50.9299 81.9704C46.4018 81.9704 42.7603 85.5051 42.7603 89.8255C42.7603 94.146 46.4018 97.6807 50.9299 97.6807Z" fill="white" stroke="black"/>
    <path d="M50.9299 118.045C55.4578 118.045 59.0963 114.511 59.0963 110.19C59.0963 105.87 55.4578 102.335 50.9299 102.335C46.4018 102.335 42.7603 105.87 42.7603 110.19C42.7603 114.511 46.4018 118.045 50.9299 118.045Z" fill="white" stroke="black"/>
    <path d="M29.8 118.045C34.3279 118.045 37.9664 114.511 37.9664 110.19C37.9664 105.87 34.3279 102.335 29.8 102.335C25.2719 102.335 21.6304 105.87 21.6304 110.19C21.6304 114.511 25.2719 118.045 29.8 118.045Z" fill="white" stroke="black"/>
    <path d="M29.802 138.415C34.3299 138.415 37.9684 134.88 37.9684 130.559C37.9684 126.239 34.3299 122.704 29.802 122.704C25.2738 122.704 21.6323 126.239 21.6323 130.559C21.6323 134.88 25.2738 138.415 29.802 138.415Z" fill="white" stroke="black"/>
    <path d="M8.6716 138.415C13.1995 138.415 16.838 134.88 16.838 130.559C16.838 126.239 13.1995 122.704 8.6716 122.704C4.14346 122.704 0.501953 126.239 0.501953 130.559C0.501953 134.88 4.14346 138.415 8.6716 138.415Z" fill="white" stroke="black"/>
    <path d="M29.8 158.779C34.3279 158.779 37.9664 155.245 37.9664 150.924C37.9664 146.603 34.3279 143.069 29.8 143.069C25.2719 143.069 21.6304 146.604 21.6304 150.924C21.6304 155.245 25.2719 158.779 29.8 158.779Z" fill="white" stroke="black"/>
    <path d="M8.66964 158.779C13.1975 158.779 16.836 155.245 16.836 150.924C16.836 146.603 13.1975 143.069 8.66964 143.069C4.14151 143.069 0.5 146.604 0.5 150.924C0.5 155.245 4.14151 158.779 8.66964 158.779Z" fill="white" stroke="black"/>
    <path d="M29.8 179.144C34.3279 179.144 37.9664 175.61 37.9664 171.289C37.9664 166.968 34.3279 163.434 29.8 163.434C25.2719 163.434 21.6304 166.968 21.6304 171.289C21.6304 175.609 25.2719 179.144 29.8 179.144Z" fill="white" stroke="black"/>
    <path d="M8.66964 199.513C13.1975 199.513 16.836 195.979 16.836 191.658C16.836 187.337 13.1975 183.803 8.66964 183.803C4.14151 183.803 0.5 187.338 0.5 191.658C0.5 195.979 4.14151 199.513 8.66964 199.513Z" fill="white" stroke="black"/>
    <path d="M29.8 199.513C34.3279 199.513 37.9664 195.979 37.9664 191.658C37.9664 187.337 34.3279 183.803 29.8 183.803C25.2719 183.803 21.6304 187.338 21.6304 191.658C21.6304 195.979 25.2719 199.513 29.8 199.513Z" fill="white" stroke="black"/>
    <path d="M29.8 219.884C34.3279 219.884 37.9664 216.349 37.9664 212.029C37.9664 207.708 34.3279 204.174 29.8 204.174C25.2719 204.174 21.6304 207.708 21.6304 212.029C21.6304 216.349 25.2719 219.884 29.8 219.884Z" fill="white" stroke="black"/>
    <path d="M50.9299 219.884C55.4578 219.884 59.0963 216.349 59.0963 212.029C59.0963 207.708 55.4578 204.174 50.9299 204.174C46.4018 204.174 42.7603 207.708 42.7603 212.029C42.7603 216.349 46.4018 219.884 50.9299 219.884Z" fill="white" stroke="black"/>
    <path d="M50.9299 240.248C55.4578 240.248 59.0963 236.714 59.0963 232.393C59.0963 228.072 55.4578 224.538 50.9299 224.538C46.4018 224.538 42.7603 228.072 42.7603 232.393C42.7603 236.713 46.4018 240.248 50.9299 240.248Z" fill="white" stroke="black"/>
    <path d="M72.0615 240.248C76.5894 240.248 80.2279 236.714 80.2279 232.393C80.2279 228.072 76.5894 224.538 72.0615 224.538C67.5334 224.538 63.8918 228.072 63.8918 232.393C63.8918 236.713 67.5334 240.248 72.0615 240.248Z" fill="white" stroke="black"/>
    <path d="M72.0615 260.616C76.5894 260.616 80.2279 257.082 80.2279 252.761C80.2279 248.44 76.5894 244.906 72.0615 244.906C67.5334 244.906 63.8918 248.441 63.8918 252.761C63.8918 257.082 67.5334 260.616 72.0615 260.616Z" fill="white" stroke="black"/>
    <path d="M93.1897 240.248C97.7176 240.248 101.356 236.714 101.356 232.393C101.356 228.072 97.7176 224.538 93.1897 224.538C88.6615 224.538 85.02 228.072 85.02 232.393C85.02 236.713 88.6615 240.248 93.1897 240.248Z" fill="white" stroke="black"/>
    <path d="M93.1897 260.616C97.7176 260.616 101.356 257.082 101.356 252.761C101.356 248.44 97.7176 244.906 93.1897 244.906C88.6615 244.906 85.02 248.441 85.02 252.761C85.02 257.082 88.6615 260.616 93.1897 260.616Z" fill="white" stroke="black"/>
    <path d="M114.32 240.248C118.848 240.248 122.487 236.714 122.487 232.393C122.487 228.072 118.848 224.538 114.32 224.538C109.792 224.538 106.151 228.072 106.151 232.393C106.151 236.713 109.792 240.248 114.32 240.248Z" fill="white" stroke="black"/>
    <path d="M114.32 260.616C118.848 260.616 122.487 257.082 122.487 252.761C122.487 248.44 118.848 244.906 114.32 244.906C109.792 244.906 106.151 248.441 106.151 252.761C106.151 257.082 109.792 260.616 114.32 260.616Z" fill="white" stroke="black"/>
    <path d="M135.449 240.248C139.977 240.248 143.616 236.714 143.616 232.393C143.616 228.072 139.977 224.538 135.449 224.538C130.921 224.538 127.28 228.072 127.28 232.393C127.28 236.713 130.921 240.248 135.449 240.248Z" fill="white" stroke="black"/>
    <path d="M156.58 240.248C161.107 240.248 164.746 236.714 164.746 232.393C164.746 228.072 161.107 224.538 156.58 224.538C152.051 224.538 148.41 228.072 148.41 232.393C148.41 236.713 152.051 240.248 156.58 240.248Z" fill="white" stroke="black"/>
    <path d="M177.709 240.248C182.237 240.248 185.876 236.714 185.876 232.393C185.876 228.072 182.237 224.538 177.709 224.538C173.181 224.538 169.54 228.072 169.54 232.393C169.54 236.713 173.181 240.248 177.709 240.248Z" fill="white" stroke="black"/>
    <path d="M198.839 240.248C203.367 240.248 207.005 236.714 207.005 232.393C207.005 228.072 203.367 224.538 198.839 224.538C194.311 224.538 190.669 228.072 190.669 232.393C190.669 236.713 194.311 240.248 198.839 240.248Z" fill="white" stroke="black"/>
    <path d="M198.839 260.616C203.367 260.616 207.005 257.082 207.005 252.761C207.005 248.44 203.367 244.906 198.839 244.906C194.311 244.906 190.669 248.441 190.669 252.761C190.669 257.082 194.311 260.616 198.839 260.616Z" fill="white" stroke="black"/>
    <path d="M219.967 260.616C224.495 260.616 228.134 257.082 228.134 252.761C228.134 248.44 224.495 244.906 219.967 244.906C215.439 244.906 211.798 248.441 211.798 252.761C211.798 257.082 215.439 260.616 219.967 260.616Z" fill="white" stroke="black"/>
    <path d="M219.967 280.983C224.495 280.983 228.134 277.448 228.134 273.128C228.134 268.807 224.495 265.273 219.967 265.273C215.439 265.273 211.798 268.807 211.798 273.128C211.798 277.448 215.439 280.983 219.967 280.983Z" fill="white" stroke="black"/>
    <path d="M219.967 301.348C224.495 301.348 228.134 297.813 228.134 293.493C228.134 289.172 224.495 285.637 219.967 285.637C215.439 285.637 211.798 289.172 211.798 293.493C211.798 297.813 215.439 301.348 219.967 301.348Z" fill="white" stroke="black"/>
    <path d="M219.967 321.715C224.495 321.715 228.134 318.181 228.134 313.86C228.134 309.54 224.495 306.005 219.967 306.005C215.439 306.005 211.798 309.54 211.798 313.86C211.798 318.181 215.439 321.715 219.967 321.715Z" fill="white" stroke="black"/>
    <path d="M241.097 321.715C245.625 321.715 249.263 318.181 249.263 313.86C249.263 309.54 245.625 306.005 241.097 306.005C236.569 306.005 232.927 309.54 232.927 313.86C232.927 318.181 236.569 321.715 241.097 321.715Z" fill="white" stroke="black"/>
    <path d="M241.097 342.081C245.625 342.081 249.263 338.547 249.263 334.226C249.263 329.905 245.625 326.371 241.097 326.371C236.569 326.371 232.927 329.905 232.927 334.226C232.927 338.546 236.569 342.081 241.097 342.081Z" fill="white" stroke="black"/>
    <path d="M262.227 342.081C266.755 342.081 270.394 338.547 270.394 334.226C270.394 329.905 266.755 326.371 262.227 326.371C257.699 326.371 254.058 329.905 254.058 334.226C254.058 338.546 257.699 342.081 262.227 342.081Z" fill="white" stroke="black"/>
    <path d="M262.227 362.451C266.755 362.451 270.394 358.916 270.394 354.596C270.394 350.275 266.755 346.74 262.227 346.74C257.699 346.74 254.058 350.275 254.058 354.596C254.058 358.916 257.699 362.451 262.227 362.451Z" fill="white" stroke="black"/>
    <path d="M241.097 362.451C245.625 362.451 249.263 358.916 249.263 354.596C249.263 350.275 245.625 346.74 241.097 346.74C236.569 346.74 232.927 350.275 232.927 354.596C232.927 358.916 236.569 362.451 241.097 362.451Z" fill="white" stroke="black"/>
    <path d="M262.227 382.817C266.755 382.817 270.394 379.282 270.394 374.962C270.394 370.641 266.755 367.107 262.227 367.107C257.699 367.107 254.058 370.641 254.058 374.962C254.058 379.282 257.699 382.817 262.227 382.817Z" fill="white" stroke="black"/>
    <path d="M241.097 382.817C245.625 382.817 249.263 379.282 249.263 374.962C249.263 370.641 245.625 367.107 241.097 367.107C236.569 367.107 232.927 370.641 232.927 374.962C232.927 379.282 236.569 382.817 241.097 382.817Z" fill="white" stroke="black"/>
    <path d="M262.227 403.184C266.755 403.184 270.394 399.65 270.394 395.329C270.394 391.008 266.755 387.474 262.227 387.474C257.699 387.474 254.058 391.008 254.058 395.329C254.058 399.649 257.699 403.184 262.227 403.184Z" fill="white" stroke="black"/>
    <path d="M262.226 423.55C266.754 423.55 270.392 420.016 270.392 415.695C270.392 411.374 266.754 407.84 262.226 407.84C257.698 407.84 254.056 411.375 254.056 415.695C254.056 420.016 257.698 423.55 262.226 423.55Z" fill="white" stroke="black"/>
    <path d="M241.098 423.55C245.626 423.55 249.265 420.016 249.265 415.695C249.265 411.374 245.626 407.84 241.098 407.84C236.57 407.84 232.929 411.375 232.929 415.695C232.929 420.016 236.57 423.55 241.098 423.55Z" fill="white" stroke="black"/>
    <path d="M241.097 443.916C245.625 443.916 249.263 440.381 249.263 436.06C249.263 431.74 245.625 428.205 241.097 428.205C236.569 428.205 232.927 431.74 232.927 436.06C232.927 440.381 236.569 443.916 241.097 443.916Z" fill="white" stroke="black"/>
    <path d="M262.227 443.916C266.755 443.916 270.394 440.381 270.394 436.06C270.394 431.74 266.755 428.205 262.227 428.205C257.699 428.205 254.058 431.74 254.058 436.06C254.058 440.381 257.699 443.916 262.227 443.916Z" fill="white" stroke="black"/>
    <path d="M262.227 464.282C266.755 464.282 270.394 460.748 270.394 456.427C270.394 452.106 266.755 448.572 262.227 448.572C257.699 448.572 254.058 452.107 254.058 456.427C254.058 460.748 257.699 464.282 262.227 464.282Z" fill="white" stroke="black"/>
    <path d="M241.097 464.282C245.625 464.282 249.263 460.748 249.263 456.427C249.263 452.106 245.625 448.572 241.097 448.572C236.569 448.572 232.927 452.107 232.927 456.427C232.927 460.748 236.569 464.282 241.097 464.282Z" fill="white" stroke="black"/>
    <path d="M262.227 484.652C266.755 484.652 270.394 481.117 270.394 476.797C270.394 472.476 266.755 468.942 262.227 468.942C257.699 468.942 254.058 472.476 254.058 476.797C254.058 481.117 257.699 484.652 262.227 484.652Z" fill="white" stroke="black"/>
    <path d="M262.227 505.016C266.755 505.016 270.394 501.482 270.394 497.161C270.394 492.84 266.755 489.306 262.227 489.306C257.699 489.306 254.058 492.841 254.058 497.161C254.058 501.481 257.699 505.016 262.227 505.016Z" fill="white" stroke="black"/>
    <path d="M283.356 525.384C287.884 525.384 291.523 521.849 291.523 517.529C291.523 513.208 287.884 509.674 283.356 509.674C278.828 509.674 275.187 513.208 275.187 517.529C275.187 521.849 278.828 525.384 283.356 525.384Z" fill="white" stroke="black"/>
    <path d="M262.227 525.384C266.755 525.384 270.394 521.849 270.394 517.529C270.394 513.208 266.755 509.674 262.227 509.674C257.699 509.674 254.058 513.208 254.058 517.529C254.058 521.849 257.699 525.384 262.227 525.384Z" fill="white" stroke="black"/>
    <path d="M283.356 545.751C287.884 545.751 291.523 542.217 291.523 537.896C291.523 533.576 287.884 530.041 283.356 530.041C278.828 530.041 275.187 533.576 275.187 537.896C275.187 542.217 278.828 545.751 283.356 545.751Z" fill="white" stroke="black"/>
    <path d="M283.356 566.121C287.884 566.121 291.523 562.586 291.523 558.265C291.523 553.945 287.884 550.41 283.356 550.41C278.828 550.41 275.187 553.945 275.187 558.265C275.187 562.586 278.828 566.121 283.356 566.121Z" fill="white" stroke="black"/>
    <path d="M304.486 566.121C309.014 566.121 312.652 562.586 312.652 558.265C312.652 553.945 309.014 550.41 304.486 550.41C299.958 550.41 296.316 553.945 296.316 558.265C296.316 562.586 299.958 566.121 304.486 566.121Z" fill="white" stroke="black"/>
    <path d="M304.487 545.751C309.014 545.751 312.653 542.217 312.653 537.896C312.653 533.576 309.014 530.041 304.487 530.041C299.958 530.041 296.317 533.576 296.317 537.896C296.317 542.217 299.958 545.751 304.487 545.751Z" fill="white" stroke="black"/>
    <path d="M325.616 545.751C330.144 545.751 333.782 542.217 333.782 537.896C333.782 533.576 330.144 530.041 325.616 530.041C321.088 530.041 317.446 533.576 317.446 537.896C317.446 542.217 321.088 545.751 325.616 545.751Z" fill="white" stroke="black"/>
    <path d="M325.615 566.121C330.143 566.121 333.782 562.586 333.782 558.265C333.782 553.945 330.143 550.41 325.615 550.41C321.087 550.41 317.446 553.945 317.446 558.265C317.446 562.586 321.087 566.121 325.615 566.121Z" fill="white" stroke="black"/>
    <path d="M346.746 545.751C351.274 545.751 354.912 542.217 354.912 537.896C354.912 533.576 351.274 530.041 346.746 530.041C342.218 530.041 338.576 533.576 338.576 537.896C338.576 542.217 342.218 545.751 346.746 545.751Z" fill="white" stroke="black"/>
    <path d="M346.746 525.384C351.274 525.384 354.912 521.849 354.912 517.529C354.912 513.208 351.274 509.674 346.746 509.674C342.218 509.674 338.576 513.208 338.576 517.529C338.576 521.849 342.218 525.384 346.746 525.384Z" fill="white" stroke="black"/>
    <path d="M367.876 525.384C372.404 525.384 376.042 521.849 376.042 517.529C376.042 513.208 372.404 509.674 367.876 509.674C363.348 509.674 359.706 513.208 359.706 517.529C359.706 521.849 363.348 525.384 367.876 525.384Z" fill="white" stroke="black"/>
    <path d="M367.876 505.016C372.404 505.016 376.042 501.482 376.042 497.161C376.042 492.84 372.404 489.306 367.876 489.306C363.348 489.306 359.706 492.841 359.706 497.161C359.706 501.481 363.348 505.016 367.876 505.016Z" fill="white" stroke="black"/>
    <path d="M367.876 484.652C372.404 484.652 376.042 481.117 376.042 476.797C376.042 472.476 372.404 468.942 367.876 468.942C363.348 468.942 359.706 472.476 359.706 476.797C359.706 481.117 363.348 484.652 367.876 484.652Z" fill="white" stroke="black"/>
    <path d="M389.005 484.652C393.533 484.652 397.172 481.117 397.172 476.797C397.172 472.476 393.533 468.942 389.005 468.942C384.477 468.942 380.836 472.476 380.836 476.797C380.836 481.117 384.477 484.652 389.005 484.652Z" fill="white" stroke="black"/>
    <path d="M389.005 464.282C393.533 464.282 397.172 460.748 397.172 456.427C397.172 452.106 393.533 448.572 389.005 448.572C384.477 448.572 380.836 452.107 380.836 456.427C380.836 460.748 384.477 464.282 389.005 464.282Z" fill="white" stroke="black"/>
    <path d="M389.005 443.916C393.533 443.916 397.172 440.381 397.172 436.06C397.172 431.74 393.533 428.205 389.005 428.205C384.477 428.205 380.836 431.74 380.836 436.06C380.836 440.381 384.477 443.916 389.005 443.916Z" fill="white" stroke="black"/>
    <path d="M410.134 443.916C414.662 443.916 418.301 440.381 418.301 436.06C418.301 431.74 414.662 428.205 410.134 428.205C405.606 428.205 401.965 431.74 401.965 436.06C401.965 440.381 405.606 443.916 410.134 443.916Z" fill="white" stroke="black"/>
    <path d="M494.653 443.916C499.181 443.916 502.819 440.381 502.819 436.06C502.819 431.74 499.181 428.205 494.653 428.205C490.125 428.205 486.483 431.74 486.483 436.06C486.483 440.381 490.125 443.916 494.653 443.916Z" fill="white" stroke="black"/>
    <path d="M515.781 443.916C520.309 443.916 523.947 440.381 523.947 436.06C523.947 431.74 520.309 428.205 515.781 428.205C511.253 428.205 507.611 431.74 507.611 436.06C507.611 440.381 511.253 443.916 515.781 443.916Z" fill="white" stroke="black"/>
    <path d="M515.782 423.55C520.31 423.55 523.948 420.016 523.948 415.695C523.948 411.374 520.31 407.84 515.782 407.84C511.254 407.84 507.612 411.375 507.612 415.695C507.612 420.016 511.254 423.55 515.782 423.55Z" fill="white" stroke="black"/>
    <path d="M494.653 464.282C499.181 464.282 502.819 460.748 502.819 456.427C502.819 452.106 499.181 448.572 494.653 448.572C490.125 448.572 486.483 452.107 486.483 456.427C486.483 460.748 490.125 464.282 494.653 464.282Z" fill="white" stroke="black"/>
    <path d="M494.653 484.652C499.181 484.652 502.819 481.117 502.819 476.797C502.819 472.476 499.181 468.942 494.653 468.942C490.125 468.942 486.483 472.476 486.483 476.797C486.483 481.117 490.125 484.652 494.653 484.652Z" fill="white" stroke="black"/>
    <path d="M473.521 484.652C478.049 484.652 481.688 481.117 481.688 476.797C481.688 472.476 478.049 468.942 473.521 468.942C468.993 468.942 465.352 472.476 465.352 476.797C465.352 481.117 468.993 484.652 473.521 484.652Z" fill="white" stroke="black"/>
    <path d="M410.134 423.55C414.662 423.55 418.301 420.016 418.301 415.695C418.301 411.374 414.662 407.84 410.134 407.84C405.606 407.84 401.965 411.375 401.965 415.695C401.965 420.016 405.606 423.55 410.134 423.55Z" fill="white" stroke="black"/>
    <path d="M431.264 423.55C435.792 423.55 439.43 420.016 439.43 415.695C439.43 411.374 435.792 407.84 431.264 407.84C426.736 407.84 423.094 411.375 423.094 415.695C423.094 420.016 426.736 423.55 431.264 423.55Z" fill="white" stroke="black"/>
    <path d="M431.264 403.184C435.792 403.184 439.431 399.65 439.431 395.329C439.431 391.008 435.792 387.474 431.264 387.474C426.736 387.474 423.094 391.008 423.094 395.329C423.094 399.649 426.736 403.184 431.264 403.184Z" fill="white" stroke="black"/>
    <path d="M431.264 382.817C435.792 382.817 439.431 379.282 439.431 374.962C439.431 370.641 435.792 367.107 431.264 367.107C426.736 367.107 423.094 370.641 423.094 374.962C423.094 379.282 426.736 382.817 431.264 382.817Z" fill="white" stroke="black"/>
    <path d="M410.134 382.817C414.662 382.817 418.301 379.282 418.301 374.962C418.301 370.641 414.662 367.107 410.134 367.107C405.606 367.107 401.965 370.641 401.965 374.962C401.965 379.282 405.606 382.817 410.134 382.817Z" fill="white" stroke="black"/>
    <path d="M410.33 402.77C414.858 402.77 418.496 399.235 418.496 394.914C418.496 390.594 414.858 387.059 410.33 387.059C405.802 387.059 402.16 390.594 402.16 394.914C402.16 399.235 405.802 402.77 410.33 402.77Z" fill="white" stroke="black"/>
    <path d="M431.264 362.451C435.792 362.451 439.431 358.916 439.431 354.596C439.431 350.275 435.792 346.74 431.264 346.74C426.736 346.74 423.094 350.275 423.094 354.596C423.094 358.916 426.736 362.451 431.264 362.451Z" fill="white" stroke="black"/>
    <path d="M431.264 342.081C435.792 342.081 439.431 338.547 439.431 334.226C439.431 329.905 435.792 326.371 431.264 326.371C426.736 326.371 423.094 329.905 423.094 334.226C423.094 338.546 426.736 342.081 431.264 342.081Z" fill="white" stroke="black"/>
    <path d="M431.264 321.715C435.792 321.715 439.431 318.181 439.431 313.86C439.431 309.54 435.792 306.005 431.264 306.005C426.736 306.005 423.094 309.54 423.094 313.86C423.094 318.181 426.736 321.715 431.264 321.715Z" fill="white" stroke="black"/>
    <path d="M431.264 301.348C435.792 301.348 439.43 297.813 439.43 293.493C439.43 289.172 435.792 285.637 431.264 285.637C426.736 285.637 423.094 289.172 423.094 293.493C423.094 297.813 426.736 301.348 431.264 301.348Z" fill="white" stroke="black"/>
    <path d="M452.393 301.348C456.921 301.348 460.559 297.813 460.559 293.493C460.559 289.172 456.921 285.637 452.393 285.637C447.865 285.637 444.223 289.172 444.223 293.493C444.223 297.813 447.865 301.348 452.393 301.348Z" fill="white" stroke="black"/>
    <path d="M452.393 280.983C456.921 280.983 460.56 277.448 460.56 273.128C460.56 268.807 456.921 265.273 452.393 265.273C447.865 265.273 444.224 268.807 444.224 273.128C444.224 277.448 447.865 280.983 452.393 280.983Z" fill="white" stroke="black"/>
    <path d="M473.521 280.983C478.049 280.983 481.688 277.448 481.688 273.128C481.688 268.807 478.049 265.273 473.521 265.273C468.993 265.273 465.352 268.807 465.352 273.128C465.352 277.448 468.993 280.983 473.521 280.983Z" fill="white" stroke="black"/>
    <path d="M473.521 260.616C478.049 260.616 481.688 257.082 481.688 252.761C481.688 248.44 478.049 244.906 473.521 244.906C468.993 244.906 465.352 248.441 465.352 252.761C465.352 257.082 468.993 260.616 473.521 260.616Z" fill="white" stroke="black"/>
    <path d="M494.653 260.616C499.181 260.616 502.819 257.082 502.819 252.761C502.819 248.44 499.181 244.906 494.653 244.906C490.125 244.906 486.483 248.441 486.483 252.761C486.483 257.082 490.125 260.616 494.653 260.616Z" fill="white" stroke="black"/>
    <path d="M494.653 240.248C499.181 240.248 502.819 236.714 502.819 232.393C502.819 228.072 499.181 224.538 494.653 224.538C490.125 224.538 486.483 228.072 486.483 232.393C486.483 236.713 490.125 240.248 494.653 240.248Z" fill="white" stroke="black"/>
    <path d="M473.521 240.248C478.049 240.248 481.688 236.714 481.688 232.393C481.688 228.072 478.049 224.538 473.521 224.538C468.993 224.538 465.352 228.072 465.352 232.393C465.352 236.713 468.993 240.248 473.521 240.248Z" fill="white" stroke="black"/>
    <path d="M452.393 240.248C456.921 240.248 460.56 236.714 460.56 232.393C460.56 228.072 456.921 224.538 452.393 224.538C447.865 224.538 444.224 228.072 444.224 232.393C444.224 236.713 447.865 240.248 452.393 240.248Z" fill="white" stroke="black"/>
    <path d="M452.393 219.884C456.921 219.884 460.56 216.349 460.56 212.029C460.56 207.708 456.921 204.174 452.393 204.174C447.865 204.174 444.224 207.708 444.224 212.029C444.224 216.349 447.865 219.884 452.393 219.884Z" fill="white" stroke="black"/>
    <path d="M473.521 199.513C478.049 199.513 481.688 195.979 481.688 191.658C481.688 187.337 478.049 183.803 473.521 183.803C468.993 183.803 465.352 187.338 465.352 191.658C465.352 195.979 468.993 199.513 473.521 199.513Z" fill="white" stroke="black"/>
    <path d="M389.657 301.746C394.185 301.746 397.824 298.212 397.824 293.891C397.824 289.57 394.185 286.036 389.657 286.036C385.129 286.036 381.488 289.571 381.488 293.891C381.488 298.211 385.129 301.746 389.657 301.746Z" fill="white" stroke="black"/>
    <path d="M389.657 321.951C394.185 321.951 397.824 318.416 397.824 314.096C397.824 309.775 394.185 306.24 389.657 306.24C385.129 306.24 381.488 309.775 381.488 314.096C381.488 318.416 385.129 321.951 389.657 321.951Z" fill="white" stroke="black"/>
    <path d="M367.606 342.155C372.134 342.155 375.773 338.621 375.773 334.3C375.773 329.979 372.134 326.445 367.606 326.445C363.078 326.445 359.437 329.98 359.437 334.3C359.437 338.621 363.078 342.155 367.606 342.155Z" fill="white" stroke="black"/>
    <path d="M367.606 362.36C372.134 362.36 375.773 358.825 375.773 354.505C375.773 350.184 372.134 346.65 367.606 346.65C363.078 346.65 359.437 350.184 359.437 354.505C359.437 358.825 363.078 362.36 367.606 362.36Z" fill="white" stroke="black"/>
    <path d="M431.264 219.884C435.792 219.884 439.431 216.349 439.431 212.029C439.431 207.708 435.792 204.174 431.264 204.174C426.736 204.174 423.094 207.708 423.094 212.029C423.094 216.349 426.736 219.884 431.264 219.884Z" fill="white" stroke="black"/>
    <path d="M431.264 199.513C435.792 199.513 439.431 195.979 439.431 191.658C439.431 187.337 435.792 183.803 431.264 183.803C426.736 183.803 423.094 187.338 423.094 191.658C423.094 195.979 426.736 199.513 431.264 199.513Z" fill="white" stroke="black"/>
    <path d="M431.264 179.144C435.792 179.144 439.431 175.61 439.431 171.289C439.431 166.968 435.792 163.434 431.264 163.434C426.736 163.434 423.094 166.968 423.094 171.289C423.094 175.609 426.736 179.144 431.264 179.144Z" fill="white" stroke="black"/>
    <path d="M410.134 199.513C414.662 199.513 418.301 195.979 418.301 191.658C418.301 187.337 414.662 183.803 410.134 183.803C405.606 183.803 401.965 187.338 401.965 191.658C401.965 195.979 405.606 199.513 410.134 199.513Z" fill="white" stroke="black"/>
    <path d="M410.134 179.144C414.662 179.144 418.301 175.61 418.301 171.289C418.301 166.968 414.662 163.434 410.134 163.434C405.606 163.434 401.965 166.968 401.965 171.289C401.965 175.609 405.606 179.144 410.134 179.144Z" fill="white" stroke="black"/>
    <path d="M410.134 158.779C414.662 158.779 418.301 155.245 418.301 150.924C418.301 146.603 414.662 143.069 410.134 143.069C405.606 143.069 401.965 146.604 401.965 150.924C401.965 155.245 405.606 158.779 410.134 158.779Z" fill="white" stroke="black"/>
    <path d="M410.134 138.415C414.662 138.415 418.301 134.88 418.301 130.559C418.301 126.239 414.662 122.704 410.134 122.704C405.606 122.704 401.965 126.239 401.965 130.559C401.965 134.88 405.606 138.415 410.134 138.415Z" fill="white" stroke="black"/>
    <path d="M389.005 138.415C393.533 138.415 397.172 134.88 397.172 130.559C397.172 126.239 393.533 122.704 389.005 122.704C384.477 122.704 380.836 126.239 380.836 130.559C380.836 134.88 384.477 138.415 389.005 138.415Z" fill="white" stroke="black"/>
    <path d="M389.005 118.045C393.533 118.045 397.172 114.511 397.172 110.19C397.172 105.87 393.533 102.335 389.005 102.335C384.477 102.335 380.836 105.87 380.836 110.19C380.836 114.511 384.477 118.045 389.005 118.045Z" fill="white" stroke="black"/>
    <path d="M389.005 97.6807C393.533 97.6807 397.172 94.1462 397.172 89.8255C397.172 85.5048 393.533 81.9704 389.005 81.9704C384.477 81.9704 380.836 85.5051 380.836 89.8255C380.836 94.146 384.477 97.6807 389.005 97.6807Z" fill="white" stroke="black"/>
    <path d="M367.876 97.6807C372.404 97.6807 376.042 94.1462 376.042 89.8255C376.042 85.5048 372.404 81.9704 367.876 81.9704C363.348 81.9704 359.706 85.5051 359.706 89.8255C359.706 94.146 363.348 97.6807 367.876 97.6807Z" fill="white" stroke="black"/>
    <path d="M346.746 97.6807C351.274 97.6807 354.912 94.1462 354.912 89.8255C354.912 85.5048 351.274 81.9704 346.746 81.9704C342.218 81.9704 338.576 85.5051 338.576 89.8255C338.576 94.146 342.218 97.6807 346.746 97.6807Z" fill="white" stroke="black"/>
    <path d="M325.616 97.6807C330.144 97.6807 333.782 94.1462 333.782 89.8255C333.782 85.5048 330.144 81.9704 325.616 81.9704C321.088 81.9704 317.446 85.5051 317.446 89.8255C317.446 94.146 321.088 97.6807 325.616 97.6807Z" fill="white" stroke="black"/>
    <path d="M304.487 97.6807C309.014 97.6807 312.653 94.1462 312.653 89.8255C312.653 85.5048 309.014 81.9704 304.487 81.9704C299.958 81.9704 296.317 85.5051 296.317 89.8255C296.317 94.146 299.958 97.6807 304.487 97.6807Z" fill="white" stroke="black"/>
    <path d="M283.356 97.6807C287.884 97.6807 291.523 94.1462 291.523 89.8255C291.523 85.5048 287.884 81.9704 283.356 81.9704C278.828 81.9704 275.187 85.5051 275.187 89.8255C275.187 94.146 278.828 97.6807 283.356 97.6807Z" fill="white" stroke="black"/>
    <path d="M262.227 97.6807C266.755 97.6807 270.394 94.1462 270.394 89.8255C270.394 85.5048 266.755 81.9704 262.227 81.9704C257.699 81.9704 254.058 85.5051 254.058 89.8255C254.058 94.146 257.699 97.6807 262.227 97.6807Z" fill="white" stroke="black"/>
    <path d="M241.097 97.6807C245.625 97.6807 249.263 94.1462 249.263 89.8255C249.263 85.5048 245.625 81.9704 241.097 81.9704C236.569 81.9704 232.927 85.5051 232.927 89.8255C232.927 94.146 236.569 97.6807 241.097 97.6807Z" fill="white" stroke="black"/>
    <path d="M219.967 97.6807C224.495 97.6807 228.134 94.1462 228.134 89.8255C228.134 85.5048 224.495 81.9704 219.967 81.9704C215.439 81.9704 211.798 85.5051 211.798 89.8255C211.798 94.146 215.439 97.6807 219.967 97.6807Z" fill="white" stroke="black"/>
    <path d="M219.968 77.3115C224.496 77.3115 228.135 73.7771 228.135 69.4564C228.135 65.1357 224.496 61.6013 219.968 61.6013C215.44 61.6013 211.799 65.1359 211.799 69.4564C211.799 73.7769 215.44 77.3115 219.968 77.3115Z" fill="white" stroke="black"/>
    <path d="M198.839 77.3115C203.367 77.3115 207.005 73.7771 207.005 69.4564C207.005 65.1357 203.367 61.6013 198.839 61.6013C194.311 61.6013 190.669 65.1359 190.669 69.4564C190.669 73.7769 194.311 77.3115 198.839 77.3115Z" fill="white" stroke="black"/>
    <path d="M177.709 77.3115C182.237 77.3115 185.875 73.7771 185.875 69.4564C185.875 65.1357 182.237 61.6013 177.709 61.6013C173.181 61.6013 169.539 65.1359 169.539 69.4564C169.539 73.7769 173.181 77.3115 177.709 77.3115Z" fill="white" stroke="black"/>
    <path d="M177.709 56.9463C182.237 56.9463 185.876 53.4119 185.876 49.0912C185.876 44.7705 182.237 41.236 177.709 41.236C173.181 41.236 169.54 44.7707 169.54 49.0912C169.54 53.4116 173.181 56.9463 177.709 56.9463Z" fill="white" stroke="black"/>
    <path d="M156.58 56.9463C161.107 56.9463 164.746 53.4119 164.746 49.0912C164.746 44.7705 161.107 41.236 156.58 41.236C152.051 41.236 148.41 44.7707 148.41 49.0912C148.41 53.4116 152.051 56.9463 156.58 56.9463Z" fill="white" stroke="black"/>
    <path d="M135.449 56.9463C139.977 56.9463 143.616 53.4119 143.616 49.0912C143.616 44.7705 139.977 41.236 135.449 41.236C130.921 41.236 127.28 44.7707 127.28 49.0912C127.28 53.4116 130.921 56.9463 135.449 56.9463Z" fill="white" stroke="black"/>
    <path d="M114.32 56.9463C118.848 56.9463 122.487 53.4119 122.487 49.0912C122.487 44.7705 118.848 41.236 114.32 41.236C109.792 41.236 106.151 44.7707 106.151 49.0912C106.151 53.4116 109.792 56.9463 114.32 56.9463Z" fill="white" stroke="black"/>
    <path d="M114.318 77.3115C118.846 77.3115 122.485 73.7771 122.485 69.4564C122.485 65.1357 118.846 61.6013 114.318 61.6013C109.79 61.6013 106.149 65.1359 106.149 69.4564C106.149 73.7769 109.79 77.3115 114.318 77.3115Z" fill="white" stroke="black"/>
    <path d="M93.1897 77.3115C97.7176 77.3115 101.356 73.7771 101.356 69.4564C101.356 65.1357 97.7176 61.6013 93.1897 61.6013C88.6615 61.6013 85.02 65.1359 85.02 69.4564C85.02 73.7769 88.6615 77.3115 93.1897 77.3115Z" fill="white" stroke="black"/>
    <path d="M93.1897 97.6807C97.7176 97.6807 101.356 94.1462 101.356 89.8255C101.356 85.5048 97.7176 81.9704 93.1897 81.9704C88.6615 81.9704 85.02 85.5051 85.02 89.8255C85.02 94.146 88.6615 97.6807 93.1897 97.6807Z" fill="white" stroke="black"/>
    <path d="M93.1897 118.045C97.7176 118.045 101.356 114.511 101.356 110.19C101.356 105.87 97.7176 102.335 93.1897 102.335C88.6615 102.335 85.02 105.87 85.02 110.19C85.02 114.511 88.6615 118.045 93.1897 118.045Z" fill="white" stroke="black"/>
    <path d="M72.0615 118.045C76.5894 118.045 80.2279 114.511 80.2279 110.19C80.2279 105.87 76.5894 102.335 72.0615 102.335C67.5334 102.335 63.8918 105.87 63.8918 110.19C63.8918 114.511 67.5334 118.045 72.0615 118.045Z" fill="white" stroke="black"/>
    <path d="M72.0615 138.415C76.5894 138.415 80.2279 134.88 80.2279 130.559C80.2279 126.239 76.5894 122.704 72.0615 122.704C67.5334 122.704 63.8918 126.239 63.8918 130.559C63.8918 134.88 67.5334 138.415 72.0615 138.415Z" fill="white" stroke="black"/>
    <path d="M50.9299 138.415C55.4578 138.415 59.0963 134.88 59.0963 130.559C59.0963 126.239 55.4578 122.704 50.9299 122.704C46.4018 122.704 42.7603 126.239 42.7603 130.559C42.7603 134.88 46.4018 138.415 50.9299 138.415Z" fill="white" stroke="black"/>
    <path d="M50.9299 158.779C55.4578 158.779 59.0963 155.245 59.0963 150.924C59.0963 146.603 55.4578 143.069 50.9299 143.069C46.4018 143.069 42.7603 146.604 42.7603 150.924C42.7603 155.245 46.4018 158.779 50.9299 158.779Z" fill="white" stroke="black"/>
    <path d="M50.9299 179.144C55.4578 179.144 59.0963 175.61 59.0963 171.289C59.0963 166.968 55.4578 163.434 50.9299 163.434C46.4018 163.434 42.7603 166.968 42.7603 171.289C42.7603 175.609 46.4018 179.144 50.9299 179.144Z" fill="white" stroke="black"/>
    <path d="M50.9299 199.513C55.4578 199.513 59.0963 195.979 59.0963 191.658C59.0963 187.337 55.4578 183.803 50.9299 183.803C46.4018 183.803 42.7603 187.338 42.7603 191.658C42.7603 195.979 46.4018 199.513 50.9299 199.513Z" fill="white" stroke="black"/>
    <path d="M72.0615 199.513C76.5894 199.513 80.2279 195.979 80.2279 191.658C80.2279 187.337 76.5894 183.803 72.0615 183.803C67.5334 183.803 63.8918 187.338 63.8918 191.658C63.8918 195.979 67.5334 199.513 72.0615 199.513Z" fill="white" stroke="black"/>
    <path d="M93.1897 199.513C97.7176 199.513 101.356 195.979 101.356 191.658C101.356 187.337 97.7176 183.803 93.1897 183.803C88.6615 183.803 85.02 187.338 85.02 191.658C85.02 195.979 88.6615 199.513 93.1897 199.513Z" fill="white" stroke="black"/>
    <path d="M114.32 199.513C118.848 199.513 122.487 195.979 122.487 191.658C122.487 187.337 118.848 183.803 114.32 183.803C109.792 183.803 106.151 187.338 106.151 191.658C106.151 195.979 109.792 199.513 114.32 199.513Z" fill="white" stroke="black"/>
    <path d="M135.449 199.513C139.977 199.513 143.616 195.979 143.616 191.658C143.616 187.337 139.977 183.803 135.449 183.803C130.921 183.803 127.28 187.338 127.28 191.658C127.28 195.979 130.921 199.513 135.449 199.513Z" fill="white" stroke="black"/>
    <path d="M156.58 199.513C161.107 199.513 164.746 195.979 164.746 191.658C164.746 187.337 161.107 183.803 156.58 183.803C152.051 183.803 148.41 187.338 148.41 191.658C148.41 195.979 152.051 199.513 156.58 199.513Z" fill="white" stroke="black"/>
    <path d="M156.58 219.884C161.107 219.884 164.746 216.349 164.746 212.029C164.746 207.708 161.107 204.174 156.58 204.174C152.051 204.174 148.41 207.708 148.41 212.029C148.41 216.349 152.051 219.884 156.58 219.884Z" fill="white" stroke="black"/>
    <path d="M177.709 219.884C182.237 219.884 185.876 216.349 185.876 212.029C185.876 207.708 182.237 204.174 177.709 204.174C173.181 204.174 169.54 207.708 169.54 212.029C169.54 216.349 173.181 219.884 177.709 219.884Z" fill="white" stroke="black"/>
    <path d="M198.839 219.884C203.367 219.884 207.005 216.349 207.005 212.029C207.005 207.708 203.367 204.174 198.839 204.174C194.311 204.174 190.669 207.708 190.669 212.029C190.669 216.349 194.311 219.884 198.839 219.884Z" fill="white" stroke="black"/>
    <path d="M219.967 219.884C224.495 219.884 228.134 216.349 228.134 212.029C228.134 207.708 224.495 204.174 219.967 204.174C215.439 204.174 211.798 207.708 211.798 212.029C211.798 216.349 215.439 219.884 219.967 219.884Z" fill="white" stroke="black"/>
    <path d="M219.967 240.248C224.495 240.248 228.134 236.714 228.134 232.393C228.134 228.072 224.495 224.538 219.967 224.538C215.439 224.538 211.798 228.072 211.798 232.393C211.798 236.713 215.439 240.248 219.967 240.248Z" fill="white" stroke="black"/>
    <path d="M241.097 240.248C245.625 240.248 249.263 236.714 249.263 232.393C249.263 228.072 245.625 224.538 241.097 224.538C236.569 224.538 232.927 228.072 232.927 232.393C232.927 236.713 236.569 240.248 241.097 240.248Z" fill="white" stroke="black"/>
    <path d="M241.097 260.616C245.625 260.616 249.263 257.082 249.263 252.761C249.263 248.44 245.625 244.906 241.097 244.906C236.569 244.906 232.927 248.441 232.927 252.761C232.927 257.082 236.569 260.616 241.097 260.616Z" fill="white" stroke="black"/>
    <path d="M241.097 280.983C245.625 280.983 249.263 277.448 249.263 273.128C249.263 268.807 245.625 265.273 241.097 265.273C236.569 265.273 232.927 268.807 232.927 273.128C232.927 277.448 236.569 280.983 241.097 280.983Z" fill="white" stroke="black"/>
    <path d="M241.097 301.348C245.625 301.348 249.263 297.813 249.263 293.493C249.263 289.172 245.625 285.637 241.097 285.637C236.569 285.637 232.927 289.172 232.927 293.493C232.927 297.813 236.569 301.348 241.097 301.348Z" fill="white" stroke="black"/>
    <path d="M262.227 301.348C266.755 301.348 270.393 297.813 270.393 293.493C270.393 289.172 266.755 285.637 262.227 285.637C257.699 285.637 254.057 289.172 254.057 293.493C254.057 297.813 257.699 301.348 262.227 301.348Z" fill="white" stroke="black"/>
    <path d="M262.227 321.715C266.755 321.715 270.394 318.181 270.394 313.86C270.394 309.54 266.755 306.005 262.227 306.005C257.699 306.005 254.058 309.54 254.058 313.86C254.058 318.181 257.699 321.715 262.227 321.715Z" fill="white" stroke="black"/>
    <path d="M283.356 321.715C287.884 321.715 291.523 318.181 291.523 313.86C291.523 309.54 287.884 306.005 283.356 306.005C278.828 306.005 275.187 309.54 275.187 313.86C275.187 318.181 278.828 321.715 283.356 321.715Z" fill="white" stroke="black"/>
    <path d="M283.356 342.081C287.884 342.081 291.523 338.547 291.523 334.226C291.523 329.905 287.884 326.371 283.356 326.371C278.828 326.371 275.187 329.905 275.187 334.226C275.187 338.546 278.828 342.081 283.356 342.081Z" fill="white" stroke="black"/>
    <path d="M283.357 362.451C287.885 362.451 291.523 358.916 291.523 354.596C291.523 350.275 287.885 346.74 283.357 346.74C278.829 346.74 275.187 350.275 275.187 354.596C275.187 358.916 278.829 362.451 283.357 362.451Z" fill="white" stroke="black"/>
    <path d="M283.356 382.817C287.884 382.817 291.523 379.282 291.523 374.962C291.523 370.641 287.884 367.107 283.356 367.107C278.828 367.107 275.187 370.641 275.187 374.962C275.187 379.282 278.828 382.817 283.356 382.817Z" fill="white" stroke="black"/>
    <path d="M283.356 403.184C287.884 403.184 291.523 399.65 291.523 395.329C291.523 391.008 287.884 387.474 283.356 387.474C278.828 387.474 275.187 391.008 275.187 395.329C275.187 399.649 278.828 403.184 283.356 403.184Z" fill="white" stroke="black"/>
    <path d="M283.358 423.55C287.886 423.55 291.524 420.016 291.524 415.695C291.524 411.374 287.886 407.84 283.358 407.84C278.83 407.84 275.188 411.375 275.188 415.695C275.188 420.016 278.83 423.55 283.358 423.55Z" fill="white" stroke="black"/>
    <path d="M283.356 443.916C287.884 443.916 291.523 440.381 291.523 436.06C291.523 431.74 287.884 428.205 283.356 428.205C278.828 428.205 275.187 431.74 275.187 436.06C275.187 440.381 278.828 443.916 283.356 443.916Z" fill="white" stroke="black"/>
    <path d="M283.356 464.282C287.884 464.282 291.523 460.748 291.523 456.427C291.523 452.106 287.884 448.572 283.356 448.572C278.828 448.572 275.187 452.107 275.187 456.427C275.187 460.748 278.828 464.282 283.356 464.282Z" fill="white" stroke="black"/>
    <path d="M283.356 484.652C287.884 484.652 291.523 481.117 291.523 476.797C291.523 472.476 287.884 468.942 283.356 468.942C278.828 468.942 275.187 472.476 275.187 476.797C275.187 481.117 278.828 484.652 283.356 484.652Z" fill="white" stroke="black"/>
    <path d="M283.356 505.016C287.884 505.016 291.523 501.482 291.523 497.161C291.523 492.84 287.884 489.306 283.356 489.306C278.828 489.306 275.187 492.841 275.187 497.161C275.187 501.481 278.828 505.016 283.356 505.016Z" fill="white" stroke="black"/>
    <path d="M304.487 505.016C309.014 505.016 312.653 501.482 312.653 497.161C312.653 492.84 309.014 489.306 304.487 489.306C299.958 489.306 296.317 492.841 296.317 497.161C296.317 501.481 299.958 505.016 304.487 505.016Z" fill="white" stroke="black"/>
    <path d="M304.487 525.384C309.014 525.384 312.653 521.849 312.653 517.529C312.653 513.208 309.014 509.674 304.487 509.674C299.958 509.674 296.317 513.208 296.317 517.529C296.317 521.849 299.958 525.384 304.487 525.384Z" fill="white" stroke="black"/>
    <path d="M325.616 525.384C330.144 525.384 333.782 521.849 333.782 517.529C333.782 513.208 330.144 509.674 325.616 509.674C321.088 509.674 317.446 513.208 317.446 517.529C317.446 521.849 321.088 525.384 325.616 525.384Z" fill="white" stroke="black"/>
    <path d="M325.616 505.016C330.144 505.016 333.782 501.482 333.782 497.161C333.782 492.84 330.144 489.306 325.616 489.306C321.088 489.306 317.446 492.841 317.446 497.161C317.446 501.481 321.088 505.016 325.616 505.016Z" fill="white" stroke="black"/>
    <path d="M346.746 505.016C351.274 505.016 354.912 501.482 354.912 497.161C354.912 492.84 351.274 489.306 346.746 489.306C342.218 489.306 338.576 492.841 338.576 497.161C338.576 501.481 342.218 505.016 346.746 505.016Z" fill="white" stroke="black"/>
    <path d="M346.746 484.652C351.274 484.652 354.912 481.117 354.912 476.797C354.912 472.476 351.274 468.942 346.746 468.942C342.218 468.942 338.576 472.476 338.576 476.797C338.576 481.117 342.218 484.652 346.746 484.652Z" fill="white" stroke="black"/>
    <path d="M346.746 464.282C351.274 464.282 354.912 460.748 354.912 456.427C354.912 452.106 351.274 448.572 346.746 448.572C342.218 448.572 338.576 452.107 338.576 456.427C338.576 460.748 342.218 464.282 346.746 464.282Z" fill="white" stroke="black"/>
    <path d="M367.876 464.282C372.404 464.282 376.042 460.748 376.042 456.427C376.042 452.106 372.404 448.572 367.876 448.572C363.348 448.572 359.706 452.107 359.706 456.427C359.706 460.748 363.348 464.282 367.876 464.282Z" fill="white" stroke="black"/>
    <path d="M367.876 443.916C372.404 443.916 376.042 440.381 376.042 436.06C376.042 431.74 372.404 428.205 367.876 428.205C363.348 428.205 359.706 431.74 359.706 436.06C359.706 440.381 363.348 443.916 367.876 443.916Z" fill="white" stroke="black"/>
    <path d="M367.876 423.55C372.404 423.55 376.042 420.016 376.042 415.695C376.042 411.374 372.404 407.84 367.876 407.84C363.348 407.84 359.706 411.375 359.706 415.695C359.706 420.016 363.348 423.55 367.876 423.55Z" fill="white" stroke="black"/>
    <path d="M389.005 423.55C393.533 423.55 397.172 420.016 397.172 415.695C397.172 411.374 393.533 407.84 389.005 407.84C384.477 407.84 380.836 411.375 380.836 415.695C380.836 420.016 384.477 423.55 389.005 423.55Z" fill="white" stroke="black"/>
    <path d="M389.005 403.184C393.533 403.184 397.172 399.65 397.172 395.329C397.172 391.008 393.533 387.474 389.005 387.474C384.477 387.474 380.836 391.008 380.836 395.329C380.836 399.649 384.477 403.184 389.005 403.184Z" fill="white" stroke="black"/>
    <path d="M389.005 382.817C393.533 382.817 397.172 379.282 397.172 374.962C397.172 370.641 393.533 367.107 389.005 367.107C384.477 367.107 380.836 370.641 380.836 374.962C380.836 379.282 384.477 382.817 389.005 382.817Z" fill="white" stroke="black"/>
    <path d="M389.005 362.451C393.533 362.451 397.171 358.916 397.171 354.596C397.171 350.275 393.533 346.74 389.005 346.74C384.477 346.74 380.835 350.275 380.835 354.596C380.835 358.916 384.477 362.451 389.005 362.451Z" fill="white" stroke="black"/>
    <path d="M410.134 362.451C414.662 362.451 418.301 358.916 418.301 354.596C418.301 350.275 414.662 346.74 410.134 346.74C405.606 346.74 401.965 350.275 401.965 354.596C401.965 358.916 405.606 362.451 410.134 362.451Z" fill="white" stroke="black"/>
    <path d="M410.134 342.081C414.662 342.081 418.301 338.547 418.301 334.226C418.301 329.905 414.662 326.371 410.134 326.371C405.606 326.371 401.965 329.905 401.965 334.226C401.965 338.546 405.606 342.081 410.134 342.081Z" fill="white" stroke="black"/>
    <path d="M389.005 342.081C393.533 342.081 397.172 338.547 397.172 334.226C397.172 329.905 393.533 326.371 389.005 326.371C384.477 326.371 380.836 329.905 380.836 334.226C380.836 338.546 384.477 342.081 389.005 342.081Z" fill="white" stroke="black"/>
    <path d="M410.134 321.715C414.662 321.715 418.301 318.181 418.301 313.86C418.301 309.54 414.662 306.005 410.134 306.005C405.606 306.005 401.965 309.54 401.965 313.86C401.965 318.181 405.606 321.715 410.134 321.715Z" fill="white" stroke="black"/>
    <path d="M410.134 301.348C414.662 301.348 418.3 297.813 418.3 293.493C418.3 289.172 414.662 285.637 410.134 285.637C405.606 285.637 401.964 289.172 401.964 293.493C401.964 297.813 405.606 301.348 410.134 301.348Z" fill="white" stroke="black"/>
    <path d="M410.134 280.983C414.662 280.983 418.301 277.448 418.301 273.128C418.301 268.807 414.662 265.273 410.134 265.273C405.606 265.273 401.965 268.807 401.965 273.128C401.965 277.448 405.606 280.983 410.134 280.983Z" fill="white" stroke="black"/>
    <path d="M431.264 280.983C435.792 280.983 439.431 277.448 439.431 273.128C439.431 268.807 435.792 265.273 431.264 265.273C426.736 265.273 423.094 268.807 423.094 273.128C423.094 277.448 426.736 280.983 431.264 280.983Z" fill="white" stroke="black"/>
    <path d="M431.264 260.616C435.792 260.616 439.431 257.082 439.431 252.761C439.431 248.44 435.792 244.906 431.264 244.906C426.736 244.906 423.094 248.441 423.094 252.761C423.094 257.082 426.736 260.616 431.264 260.616Z" fill="white" stroke="black"/>
    <path d="M452.393 260.616C456.921 260.616 460.56 257.082 460.56 252.761C460.56 248.44 456.921 244.906 452.393 244.906C447.865 244.906 444.224 248.441 444.224 252.761C444.224 257.082 447.865 260.616 452.393 260.616Z" fill="white" stroke="black"/>
    <path d="M431.264 240.248C435.792 240.248 439.431 236.714 439.431 232.393C439.431 228.072 435.792 224.538 431.264 224.538C426.736 224.538 423.094 228.072 423.094 232.393C423.094 236.713 426.736 240.248 431.264 240.248Z" fill="white" stroke="black"/>
    <path d="M410.134 240.248C414.662 240.248 418.301 236.714 418.301 232.393C418.301 228.072 414.662 224.538 410.134 224.538C405.606 224.538 401.965 228.072 401.965 232.393C401.965 236.713 405.606 240.248 410.134 240.248Z" fill="white" stroke="black"/>
    <path d="M410.134 260.616C414.662 260.616 418.301 257.082 418.301 252.761C418.301 248.44 414.662 244.906 410.134 244.906C405.606 244.906 401.965 248.441 401.965 252.761C401.965 257.082 405.606 260.616 410.134 260.616Z" fill="white" stroke="black"/>
    <path d="M389.005 260.616C393.533 260.616 397.172 257.082 397.172 252.761C397.172 248.44 393.533 244.906 389.005 244.906C384.477 244.906 380.836 248.441 380.836 252.761C380.836 257.082 384.477 260.616 389.005 260.616Z" fill="white" stroke="black"/>
    <path d="M389.005 240.248C393.533 240.248 397.172 236.714 397.172 232.393C397.172 228.072 393.533 224.538 389.005 224.538C384.477 224.538 380.836 228.072 380.836 232.393C380.836 236.713 384.477 240.248 389.005 240.248Z" fill="white" stroke="black"/>
    <path d="M389.005 219.884C393.533 219.884 397.172 216.349 397.172 212.029C397.172 207.708 393.533 204.174 389.005 204.174C384.477 204.174 380.836 207.708 380.836 212.029C380.836 216.349 384.477 219.884 389.005 219.884Z" fill="white" stroke="black"/>
    <path d="M410.134 219.884C414.662 219.884 418.301 216.349 418.301 212.029C418.301 207.708 414.662 204.174 410.134 204.174C405.606 204.174 401.965 207.708 401.965 212.029C401.965 216.349 405.606 219.884 410.134 219.884Z" fill="white" stroke="black"/>
    <path d="M389.005 199.513C393.533 199.513 397.172 195.979 397.172 191.658C397.172 187.337 393.533 183.803 389.005 183.803C384.477 183.803 380.836 187.338 380.836 191.658C380.836 195.979 384.477 199.513 389.005 199.513Z" fill="white" stroke="black"/>
    <path d="M389.005 179.144C393.533 179.144 397.172 175.61 397.172 171.289C397.172 166.968 393.533 163.434 389.005 163.434C384.477 163.434 380.836 166.968 380.836 171.289C380.836 175.609 384.477 179.144 389.005 179.144Z" fill="white" stroke="black"/>
    <path d="M389.005 158.779C393.533 158.779 397.172 155.245 397.172 150.924C397.172 146.603 393.533 143.069 389.005 143.069C384.477 143.069 380.836 146.604 380.836 150.924C380.836 155.245 384.477 158.779 389.005 158.779Z" fill="white" stroke="black"/>
    <path d="M367.876 158.779C372.404 158.779 376.042 155.245 376.042 150.924C376.042 146.603 372.404 143.069 367.876 143.069C363.348 143.069 359.706 146.604 359.706 150.924C359.706 155.245 363.348 158.779 367.876 158.779Z" fill="white" stroke="black"/>
    <path d="M367.876 138.415C372.404 138.415 376.042 134.88 376.042 130.559C376.042 126.239 372.404 122.704 367.876 122.704C363.348 122.704 359.706 126.239 359.706 130.559C359.706 134.88 363.348 138.415 367.876 138.415Z" fill="white" stroke="black"/>
    <path d="M367.876 118.045C372.404 118.045 376.042 114.511 376.042 110.19C376.042 105.87 372.404 102.335 367.876 102.335C363.348 102.335 359.706 105.87 359.706 110.19C359.706 114.511 363.348 118.045 367.876 118.045Z" fill="white" stroke="black"/>
    <path d="M346.746 118.045C351.274 118.045 354.912 114.511 354.912 110.19C354.912 105.87 351.274 102.335 346.746 102.335C342.218 102.335 338.576 105.87 338.576 110.19C338.576 114.511 342.218 118.045 346.746 118.045Z" fill="white" stroke="black"/>
    <path d="M325.616 118.045C330.144 118.045 333.782 114.511 333.782 110.19C333.782 105.87 330.144 102.335 325.616 102.335C321.088 102.335 317.446 105.87 317.446 110.19C317.446 114.511 321.088 118.045 325.616 118.045Z" fill="white" stroke="black"/>
    <path d="M304.487 118.045C309.014 118.045 312.653 114.511 312.653 110.19C312.653 105.87 309.014 102.335 304.487 102.335C299.958 102.335 296.317 105.87 296.317 110.19C296.317 114.511 299.958 118.045 304.487 118.045Z" fill="white" stroke="black"/>
    <path d="M283.356 118.045C287.884 118.045 291.523 114.511 291.523 110.19C291.523 105.87 287.884 102.335 283.356 102.335C278.828 102.335 275.187 105.87 275.187 110.19C275.187 114.511 278.828 118.045 283.356 118.045Z" fill="white" stroke="black"/>
    <path d="M262.227 118.045C266.755 118.045 270.394 114.511 270.394 110.19C270.394 105.87 266.755 102.335 262.227 102.335C257.699 102.335 254.058 105.87 254.058 110.19C254.058 114.511 257.699 118.045 262.227 118.045Z" fill="white" stroke="black"/>
    <path d="M241.097 118.045C245.625 118.045 249.263 114.511 249.263 110.19C249.263 105.87 245.625 102.335 241.097 102.335C236.569 102.335 232.927 105.87 232.927 110.19C232.927 114.511 236.569 118.045 241.097 118.045Z" fill="white" stroke="black"/>
    <path d="M219.967 118.045C224.495 118.045 228.134 114.511 228.134 110.19C228.134 105.87 224.495 102.335 219.967 102.335C215.439 102.335 211.798 105.87 211.798 110.19C211.798 114.511 215.439 118.045 219.967 118.045Z" fill="white" stroke="black"/>
    <path d="M198.839 118.045C203.367 118.045 207.005 114.511 207.005 110.19C207.005 105.87 203.367 102.335 198.839 102.335C194.311 102.335 190.669 105.87 190.669 110.19C190.669 114.511 194.311 118.045 198.839 118.045Z" fill="white" stroke="black"/>
    <path d="M198.839 97.6807C203.367 97.6807 207.005 94.1462 207.005 89.8255C207.005 85.5048 203.367 81.9704 198.839 81.9704C194.311 81.9704 190.669 85.5051 190.669 89.8255C190.669 94.146 194.311 97.6807 198.839 97.6807Z" fill="white" stroke="black"/>
    <path d="M177.709 97.6807C182.237 97.6807 185.876 94.1462 185.876 89.8255C185.876 85.5048 182.237 81.9704 177.709 81.9704C173.181 81.9704 169.54 85.5051 169.54 89.8255C169.54 94.146 173.181 97.6807 177.709 97.6807Z" fill="white" stroke="black"/>
    <path d="M156.58 97.6807C161.107 97.6807 164.746 94.1462 164.746 89.8255C164.746 85.5048 161.107 81.9704 156.58 81.9704C152.051 81.9704 148.41 85.5051 148.41 89.8255C148.41 94.146 152.051 97.6807 156.58 97.6807Z" fill="white" stroke="black"/>
    <path d="M156.58 77.3115C161.107 77.3115 164.746 73.7771 164.746 69.4564C164.746 65.1357 161.107 61.6013 156.58 61.6013C152.051 61.6013 148.41 65.1359 148.41 69.4564C148.41 73.7769 152.051 77.3115 156.58 77.3115Z" fill="white" stroke="black"/>
    <path d="M135.449 77.3115C139.977 77.3115 143.616 73.7771 143.616 69.4564C143.616 65.1357 139.977 61.6013 135.449 61.6013C130.921 61.6013 127.28 65.1359 127.28 69.4564C127.28 73.7769 130.921 77.3115 135.449 77.3115Z" fill="white" stroke="black"/>
    <path d="M135.449 97.6807C139.977 97.6807 143.616 94.1462 143.616 89.8255C143.616 85.5048 139.977 81.9704 135.449 81.9704C130.921 81.9704 127.28 85.5051 127.28 89.8255C127.28 94.146 130.921 97.6807 135.449 97.6807Z" fill="white" stroke="black"/>
    <path d="M114.32 97.6807C118.848 97.6807 122.487 94.1462 122.487 89.8255C122.487 85.5048 118.848 81.9704 114.32 81.9704C109.792 81.9704 106.151 85.5051 106.151 89.8255C106.151 94.146 109.792 97.6807 114.32 97.6807Z" fill="white" stroke="black"/>
    <path d="M114.32 118.045C118.848 118.045 122.487 114.511 122.487 110.19C122.487 105.87 118.848 102.335 114.32 102.335C109.792 102.335 106.151 105.87 106.151 110.19C106.151 114.511 109.792 118.045 114.32 118.045Z" fill="white" stroke="black"/>
    <path d="M114.318 138.415C118.846 138.415 122.485 134.88 122.485 130.559C122.485 126.239 118.846 122.704 114.318 122.704C109.79 122.704 106.149 126.239 106.149 130.559C106.149 134.88 109.79 138.415 114.318 138.415Z" fill="white" stroke="black"/>
    <path d="M93.1897 138.415C97.7176 138.415 101.356 134.88 101.356 130.559C101.356 126.239 97.7176 122.704 93.1897 122.704C88.6615 122.704 85.02 126.239 85.02 130.559C85.02 134.88 88.6615 138.415 93.1897 138.415Z" fill="white" stroke="black"/>
    <path d="M93.1897 158.779C97.7176 158.779 101.356 155.245 101.356 150.924C101.356 146.603 97.7176 143.069 93.1897 143.069C88.6615 143.069 85.02 146.604 85.02 150.924C85.02 155.245 88.6615 158.779 93.1897 158.779Z" fill="white" stroke="black"/>
    <path d="M72.0615 158.779C76.5894 158.779 80.2279 155.245 80.2279 150.924C80.2279 146.603 76.5894 143.069 72.0615 143.069C67.5334 143.069 63.8918 146.604 63.8918 150.924C63.8918 155.245 67.5334 158.779 72.0615 158.779Z" fill="white" stroke="black"/>
    <path d="M72.0615 179.144C76.5894 179.144 80.2279 175.61 80.2279 171.289C80.2279 166.968 76.5894 163.434 72.0615 163.434C67.5334 163.434 63.8918 166.968 63.8918 171.289C63.8918 175.609 67.5334 179.144 72.0615 179.144Z" fill="white" stroke="black"/>
    <path d="M93.1897 179.144C97.7176 179.144 101.356 175.61 101.356 171.289C101.356 166.968 97.7176 163.434 93.1897 163.434C88.6615 163.434 85.02 166.968 85.02 171.289C85.02 175.609 88.6615 179.144 93.1897 179.144Z" fill="white" stroke="black"/>
    <path d="M114.32 179.144C118.848 179.144 122.487 175.61 122.487 171.289C122.487 166.968 118.848 163.434 114.32 163.434C109.792 163.434 106.151 166.968 106.151 171.289C106.151 175.609 109.792 179.144 114.32 179.144Z" fill="white" stroke="black"/>
    <path d="M135.449 179.144C139.977 179.144 143.616 175.61 143.616 171.289C143.616 166.968 139.977 163.434 135.449 163.434C130.921 163.434 127.28 166.968 127.28 171.289C127.28 175.609 130.921 179.144 135.449 179.144Z" fill="white" stroke="black"/>
    <path d="M156.58 179.144C161.107 179.144 164.746 175.61 164.746 171.289C164.746 166.968 161.107 163.434 156.58 163.434C152.051 163.434 148.41 166.968 148.41 171.289C148.41 175.609 152.051 179.144 156.58 179.144Z" fill="white" stroke="black"/>
    <path d="M177.709 179.144C182.237 179.144 185.876 175.61 185.876 171.289C185.876 166.968 182.237 163.434 177.709 163.434C173.181 163.434 169.54 166.968 169.54 171.289C169.54 175.609 173.181 179.144 177.709 179.144Z" fill="white" stroke="black"/>
    <path d="M198.839 179.144C203.367 179.144 207.005 175.61 207.005 171.289C207.005 166.968 203.367 163.434 198.839 163.434C194.311 163.434 190.669 166.968 190.669 171.289C190.669 175.609 194.311 179.144 198.839 179.144Z" fill="white" stroke="black"/>
    <path d="M177.709 199.513C182.237 199.513 185.876 195.979 185.876 191.658C185.876 187.337 182.237 183.803 177.709 183.803C173.181 183.803 169.54 187.338 169.54 191.658C169.54 195.979 173.181 199.513 177.709 199.513Z" fill="white" stroke="black"/>
    <path d="M198.839 199.513C203.367 199.513 207.005 195.979 207.005 191.658C207.005 187.337 203.367 183.803 198.839 183.803C194.311 183.803 190.669 187.338 190.669 191.658C190.669 195.979 194.311 199.513 198.839 199.513Z" fill="white" stroke="black"/>
    <path d="M219.967 199.513C224.495 199.513 228.134 195.979 228.134 191.658C228.134 187.337 224.495 183.803 219.967 183.803C215.439 183.803 211.798 187.338 211.798 191.658C211.798 195.979 215.439 199.513 219.967 199.513Z" fill="white" stroke="black"/>
    <path d="M241.097 199.513C245.625 199.513 249.263 195.979 249.263 191.658C249.263 187.337 245.625 183.803 241.097 183.803C236.569 183.803 232.927 187.338 232.927 191.658C232.927 195.979 236.569 199.513 241.097 199.513Z" fill="white" stroke="black"/>
    <path d="M241.097 219.884C245.625 219.884 249.263 216.349 249.263 212.029C249.263 207.708 245.625 204.174 241.097 204.174C236.569 204.174 232.927 207.708 232.927 212.029C232.927 216.349 236.569 219.884 241.097 219.884Z" fill="white" stroke="black"/>
    <path d="M262.227 219.884C266.755 219.884 270.394 216.349 270.394 212.029C270.394 207.708 266.755 204.174 262.227 204.174C257.699 204.174 254.058 207.708 254.058 212.029C254.058 216.349 257.699 219.884 262.227 219.884Z" fill="white" stroke="black"/>
    <path d="M262.227 240.248C266.755 240.248 270.394 236.714 270.394 232.393C270.394 228.072 266.755 224.538 262.227 224.538C257.699 224.538 254.058 228.072 254.058 232.393C254.058 236.713 257.699 240.248 262.227 240.248Z" fill="white" stroke="black"/>
    <path d="M262.227 260.616C266.755 260.616 270.394 257.082 270.394 252.761C270.394 248.44 266.755 244.906 262.227 244.906C257.699 244.906 254.058 248.441 254.058 252.761C254.058 257.082 257.699 260.616 262.227 260.616Z" fill="white" stroke="black"/>
    <path d="M262.227 280.983C266.755 280.983 270.394 277.448 270.394 273.128C270.394 268.807 266.755 265.273 262.227 265.273C257.699 265.273 254.058 268.807 254.058 273.128C254.058 277.448 257.699 280.983 262.227 280.983Z" fill="white" stroke="black"/>
    <path d="M283.356 280.983C287.884 280.983 291.523 277.448 291.523 273.128C291.523 268.807 287.884 265.273 283.356 265.273C278.828 265.273 275.187 268.807 275.187 273.128C275.187 277.448 278.828 280.983 283.356 280.983Z" fill="white" stroke="black"/>
    <path d="M283.357 301.348C287.885 301.348 291.523 297.813 291.523 293.493C291.523 289.172 287.885 285.637 283.357 285.637C278.829 285.637 275.187 289.172 275.187 293.493C275.187 297.813 278.829 301.348 283.357 301.348Z" fill="white" stroke="black"/>
    <path d="M304.487 301.348C309.015 301.348 312.653 297.813 312.653 293.493C312.653 289.172 309.015 285.637 304.487 285.637C299.959 285.637 296.317 289.172 296.317 293.493C296.317 297.813 299.959 301.348 304.487 301.348Z" fill="white" stroke="black"/>
    <path d="M304.487 321.715C309.014 321.715 312.653 318.181 312.653 313.86C312.653 309.54 309.014 306.005 304.487 306.005C299.958 306.005 296.317 309.54 296.317 313.86C296.317 318.181 299.958 321.715 304.487 321.715Z" fill="white" stroke="black"/>
    <path d="M304.487 342.081C309.014 342.081 312.653 338.547 312.653 334.226C312.653 329.905 309.014 326.371 304.487 326.371C299.958 326.371 296.317 329.905 296.317 334.226C296.317 338.546 299.958 342.081 304.487 342.081Z" fill="white" stroke="black"/>
    <path d="M304.487 362.451C309.015 362.451 312.653 358.916 312.653 354.596C312.653 350.275 309.015 346.74 304.487 346.74C299.959 346.74 296.317 350.275 296.317 354.596C296.317 358.916 299.959 362.451 304.487 362.451Z" fill="white" stroke="black"/>
    <path d="M304.487 382.817C309.014 382.817 312.653 379.282 312.653 374.962C312.653 370.641 309.014 367.107 304.487 367.107C299.958 367.107 296.317 370.641 296.317 374.962C296.317 379.282 299.958 382.817 304.487 382.817Z" fill="white" stroke="black"/>
    <path d="M304.487 403.184C309.014 403.184 312.653 399.65 312.653 395.329C312.653 391.008 309.014 387.474 304.487 387.474C299.958 387.474 296.317 391.008 296.317 395.329C296.317 399.649 299.958 403.184 304.487 403.184Z" fill="white" stroke="black"/>
    <path d="M304.486 423.55C309.014 423.55 312.652 420.016 312.652 415.695C312.652 411.374 309.014 407.84 304.486 407.84C299.958 407.84 296.316 411.375 296.316 415.695C296.316 420.016 299.958 423.55 304.486 423.55Z" fill="white" stroke="black"/>
    <path d="M304.487 443.916C309.014 443.916 312.653 440.381 312.653 436.06C312.653 431.74 309.014 428.205 304.487 428.205C299.958 428.205 296.317 431.74 296.317 436.06C296.317 440.381 299.958 443.916 304.487 443.916Z" fill="white" stroke="black"/>
    <path d="M304.487 464.282C309.014 464.282 312.653 460.748 312.653 456.427C312.653 452.106 309.014 448.572 304.487 448.572C299.958 448.572 296.317 452.107 296.317 456.427C296.317 460.748 299.958 464.282 304.487 464.282Z" fill="white" stroke="black"/>
    <path d="M304.487 484.652C309.014 484.652 312.653 481.117 312.653 476.797C312.653 472.476 309.014 468.942 304.487 468.942C299.958 468.942 296.317 472.476 296.317 476.797C296.317 481.117 299.958 484.652 304.487 484.652Z" fill="white" stroke="black"/>
    <path d="M325.616 484.652C330.144 484.652 333.782 481.117 333.782 476.797C333.782 472.476 330.144 468.942 325.616 468.942C321.088 468.942 317.446 472.476 317.446 476.797C317.446 481.117 321.088 484.652 325.616 484.652Z" fill="white" stroke="black"/>
    <path d="M325.616 464.282C330.144 464.282 333.782 460.748 333.782 456.427C333.782 452.106 330.144 448.572 325.616 448.572C321.088 448.572 317.446 452.107 317.446 456.427C317.446 460.748 321.088 464.282 325.616 464.282Z" fill="white" stroke="black"/>
    <path d="M325.616 443.916C330.144 443.916 333.782 440.381 333.782 436.06C333.782 431.74 330.144 428.205 325.616 428.205C321.088 428.205 317.446 431.74 317.446 436.06C317.446 440.381 321.088 443.916 325.616 443.916Z" fill="white" stroke="black"/>
    <path d="M346.746 443.916C351.274 443.916 354.912 440.381 354.912 436.06C354.912 431.74 351.274 428.205 346.746 428.205C342.218 428.205 338.576 431.74 338.576 436.06C338.576 440.381 342.218 443.916 346.746 443.916Z" fill="white" stroke="black"/>
    <path d="M325.616 423.55C330.144 423.55 333.782 420.016 333.782 415.695C333.782 411.374 330.144 407.84 325.616 407.84C321.088 407.84 317.446 411.375 317.446 415.695C317.446 420.016 321.088 423.55 325.616 423.55Z" fill="white" stroke="black"/>
    <path d="M325.616 403.184C330.144 403.184 333.782 399.65 333.782 395.329C333.782 391.008 330.144 387.474 325.616 387.474C321.088 387.474 317.446 391.008 317.446 395.329C317.446 399.649 321.088 403.184 325.616 403.184Z" fill="white" stroke="black"/>
    <path d="M325.616 382.817C330.144 382.817 333.782 379.282 333.782 374.962C333.782 370.641 330.144 367.107 325.616 367.107C321.088 367.107 317.446 370.641 317.446 374.962C317.446 379.282 321.088 382.817 325.616 382.817Z" fill="white" stroke="black"/>
    <path d="M325.616 362.451C330.144 362.451 333.783 358.916 333.783 354.596C333.783 350.275 330.144 346.74 325.616 346.74C321.088 346.74 317.447 350.275 317.447 354.596C317.447 358.916 321.088 362.451 325.616 362.451Z" fill="white" stroke="black"/>
    <path d="M325.616 342.081C330.144 342.081 333.782 338.547 333.782 334.226C333.782 329.905 330.144 326.371 325.616 326.371C321.088 326.371 317.446 329.905 317.446 334.226C317.446 338.546 321.088 342.081 325.616 342.081Z" fill="white" stroke="black"/>
    <path d="M325.616 321.715C330.144 321.715 333.782 318.181 333.782 313.86C333.782 309.54 330.144 306.005 325.616 306.005C321.088 306.005 317.446 309.54 317.446 313.86C317.446 318.181 321.088 321.715 325.616 321.715Z" fill="white" stroke="black"/>
    <path d="M325.616 301.348C330.144 301.348 333.782 297.813 333.782 293.493C333.782 289.172 330.144 285.637 325.616 285.637C321.088 285.637 317.446 289.172 317.446 293.493C317.446 297.813 321.088 301.348 325.616 301.348Z" fill="white" stroke="black"/>
    <path d="M346.746 301.348C351.274 301.348 354.912 297.813 354.912 293.493C354.912 289.172 351.274 285.637 346.746 285.637C342.218 285.637 338.576 289.172 338.576 293.493C338.576 297.813 342.218 301.348 346.746 301.348Z" fill="white" stroke="black"/>
    <path d="M346.746 280.983C351.274 280.983 354.912 277.448 354.912 273.128C354.912 268.807 351.274 265.273 346.746 265.273C342.218 265.273 338.576 268.807 338.576 273.128C338.576 277.448 342.218 280.983 346.746 280.983Z" fill="white" stroke="black"/>
    <path d="M346.746 260.616C351.274 260.616 354.912 257.082 354.912 252.761C354.912 248.44 351.274 244.906 346.746 244.906C342.218 244.906 338.576 248.441 338.576 252.761C338.576 257.082 342.218 260.616 346.746 260.616Z" fill="white" stroke="black"/>
    <path d="M346.746 240.248C351.274 240.248 354.912 236.714 354.912 232.393C354.912 228.072 351.274 224.538 346.746 224.538C342.218 224.538 338.576 228.072 338.576 232.393C338.576 236.713 342.218 240.248 346.746 240.248Z" fill="white" stroke="black"/>
    <path d="M367.876 240.248C372.404 240.248 376.042 236.714 376.042 232.393C376.042 228.072 372.404 224.538 367.876 224.538C363.348 224.538 359.706 228.072 359.706 232.393C359.706 236.713 363.348 240.248 367.876 240.248Z" fill="white" stroke="black"/>
    <path d="M367.876 219.884C372.404 219.884 376.042 216.349 376.042 212.029C376.042 207.708 372.404 204.174 367.876 204.174C363.348 204.174 359.706 207.708 359.706 212.029C359.706 216.349 363.348 219.884 367.876 219.884Z" fill="white" stroke="black"/>
    <path d="M367.876 199.513C372.404 199.513 376.042 195.979 376.042 191.658C376.042 187.337 372.404 183.803 367.876 183.803C363.348 183.803 359.706 187.338 359.706 191.658C359.706 195.979 363.348 199.513 367.876 199.513Z" fill="white" stroke="black"/>
    <path d="M367.876 179.144C372.404 179.144 376.042 175.61 376.042 171.289C376.042 166.968 372.404 163.434 367.876 163.434C363.348 163.434 359.706 166.968 359.706 171.289C359.706 175.609 363.348 179.144 367.876 179.144Z" fill="white" stroke="black"/>
    <path d="M346.746 179.144C351.274 179.144 354.912 175.61 354.912 171.289C354.912 166.968 351.274 163.434 346.746 163.434C342.218 163.434 338.576 166.968 338.576 171.289C338.576 175.609 342.218 179.144 346.746 179.144Z" fill="white" stroke="black"/>
    <path d="M346.746 158.779C351.274 158.779 354.912 155.245 354.912 150.924C354.912 146.603 351.274 143.069 346.746 143.069C342.218 143.069 338.576 146.604 338.576 150.924C338.576 155.245 342.218 158.779 346.746 158.779Z" fill="white" stroke="black"/>
    <path d="M346.746 138.415C351.274 138.415 354.912 134.88 354.912 130.559C354.912 126.239 351.274 122.704 346.746 122.704C342.218 122.704 338.576 126.239 338.576 130.559C338.576 134.88 342.218 138.415 346.746 138.415Z" fill="white" stroke="black"/>
    <path d="M325.616 138.415C330.144 138.415 333.782 134.88 333.782 130.559C333.782 126.239 330.144 122.704 325.616 122.704C321.088 122.704 317.446 126.239 317.446 130.559C317.446 134.88 321.088 138.415 325.616 138.415Z" fill="white" stroke="black"/>
    <path d="M304.487 138.415C309.014 138.415 312.653 134.88 312.653 130.559C312.653 126.239 309.014 122.704 304.487 122.704C299.958 122.704 296.317 126.239 296.317 130.559C296.317 134.88 299.958 138.415 304.487 138.415Z" fill="white" stroke="black"/>
    <path d="M283.356 138.415C287.884 138.415 291.523 134.88 291.523 130.559C291.523 126.239 287.884 122.704 283.356 122.704C278.828 122.704 275.187 126.239 275.187 130.559C275.187 134.88 278.828 138.415 283.356 138.415Z" fill="white" stroke="black"/>
    <path d="M262.227 138.415C266.755 138.415 270.394 134.88 270.394 130.559C270.394 126.239 266.755 122.704 262.227 122.704C257.699 122.704 254.058 126.239 254.058 130.559C254.058 134.88 257.699 138.415 262.227 138.415Z" fill="white" stroke="black"/>
    <path d="M241.098 138.415C245.626 138.415 249.265 134.88 249.265 130.559C249.265 126.239 245.626 122.704 241.098 122.704C236.57 122.704 232.929 126.239 232.929 130.559C232.929 134.88 236.57 138.415 241.098 138.415Z" fill="white" stroke="black"/>
    <path d="M219.968 138.415C224.496 138.415 228.135 134.88 228.135 130.559C228.135 126.239 224.496 122.704 219.968 122.704C215.44 122.704 211.799 126.239 211.799 130.559C211.799 134.88 215.44 138.415 219.968 138.415Z" fill="white" stroke="black"/>
    <path d="M198.839 138.415C203.367 138.415 207.005 134.88 207.005 130.559C207.005 126.239 203.367 122.704 198.839 122.704C194.311 122.704 190.669 126.239 190.669 130.559C190.669 134.88 194.311 138.415 198.839 138.415Z" fill="white" stroke="black"/>
    <path d="M177.709 138.415C182.237 138.415 185.875 134.88 185.875 130.559C185.875 126.239 182.237 122.704 177.709 122.704C173.181 122.704 169.539 126.239 169.539 130.559C169.539 134.88 173.181 138.415 177.709 138.415Z" fill="white" stroke="black"/>
    <path d="M177.709 118.045C182.237 118.045 185.876 114.511 185.876 110.19C185.876 105.87 182.237 102.335 177.709 102.335C173.181 102.335 169.54 105.87 169.54 110.19C169.54 114.511 173.181 118.045 177.709 118.045Z" fill="white" stroke="black"/>
    <path d="M156.58 118.045C161.107 118.045 164.746 114.511 164.746 110.19C164.746 105.87 161.107 102.335 156.58 102.335C152.051 102.335 148.41 105.87 148.41 110.19C148.41 114.511 152.051 118.045 156.58 118.045Z" fill="white" stroke="black"/>
    <path d="M135.449 118.045C139.977 118.045 143.616 114.511 143.616 110.19C143.616 105.87 139.977 102.335 135.449 102.335C130.921 102.335 127.28 105.87 127.28 110.19C127.28 114.511 130.921 118.045 135.449 118.045Z" fill="white" stroke="black"/>
    <path d="M135.449 138.415C139.977 138.415 143.616 134.88 143.616 130.559C143.616 126.239 139.977 122.704 135.449 122.704C130.921 122.704 127.28 126.239 127.28 130.559C127.28 134.88 130.921 138.415 135.449 138.415Z" fill="white" stroke="black"/>
    <path d="M156.58 138.415C161.107 138.415 164.746 134.88 164.746 130.559C164.746 126.239 161.107 122.704 156.58 122.704C152.051 122.704 148.41 126.239 148.41 130.559C148.41 134.88 152.051 138.415 156.58 138.415Z" fill="white" stroke="black"/>
    <path d="M114.32 158.779C118.848 158.779 122.487 155.245 122.487 150.924C122.487 146.603 118.848 143.069 114.32 143.069C109.792 143.069 106.151 146.604 106.151 150.924C106.151 155.245 109.792 158.779 114.32 158.779Z" fill="white" stroke="black"/>
    <path d="M135.449 158.779C139.977 158.779 143.616 155.245 143.616 150.924C143.616 146.603 139.977 143.069 135.449 143.069C130.921 143.069 127.28 146.604 127.28 150.924C127.28 155.245 130.921 158.779 135.449 158.779Z" fill="white" stroke="black"/>
    <path d="M156.58 158.779C161.107 158.779 164.746 155.245 164.746 150.924C164.746 146.603 161.107 143.069 156.58 143.069C152.051 143.069 148.41 146.604 148.41 150.924C148.41 155.245 152.051 158.779 156.58 158.779Z" fill="white" stroke="black"/>
    <path d="M177.709 158.779C182.237 158.779 185.876 155.245 185.876 150.924C185.876 146.603 182.237 143.069 177.709 143.069C173.181 143.069 169.54 146.604 169.54 150.924C169.54 155.245 173.181 158.779 177.709 158.779Z" fill="white" stroke="black"/>
    <path d="M198.839 158.779C203.367 158.779 207.005 155.245 207.005 150.924C207.005 146.603 203.367 143.069 198.839 143.069C194.311 143.069 190.669 146.604 190.669 150.924C190.669 155.245 194.311 158.779 198.839 158.779Z" fill="white" stroke="black"/>
    <path d="M219.967 158.779C224.495 158.779 228.134 155.245 228.134 150.924C228.134 146.603 224.495 143.069 219.967 143.069C215.439 143.069 211.798 146.604 211.798 150.924C211.798 155.245 215.439 158.779 219.967 158.779Z" fill="white" stroke="black"/>
    <path d="M241.097 158.779C245.625 158.779 249.263 155.245 249.263 150.924C249.263 146.603 245.625 143.069 241.097 143.069C236.569 143.069 232.927 146.604 232.927 150.924C232.927 155.245 236.569 158.779 241.097 158.779Z" fill="white" stroke="black"/>
    <path d="M262.227 158.779C266.755 158.779 270.394 155.245 270.394 150.924C270.394 146.603 266.755 143.069 262.227 143.069C257.699 143.069 254.058 146.604 254.058 150.924C254.058 155.245 257.699 158.779 262.227 158.779Z" fill="white" stroke="black"/>
    <path d="M283.356 158.779C287.884 158.779 291.523 155.245 291.523 150.924C291.523 146.603 287.884 143.069 283.356 143.069C278.828 143.069 275.187 146.604 275.187 150.924C275.187 155.245 278.828 158.779 283.356 158.779Z" fill="white" stroke="black"/>
    <path d="M304.487 158.779C309.014 158.779 312.653 155.245 312.653 150.924C312.653 146.603 309.014 143.069 304.487 143.069C299.958 143.069 296.317 146.604 296.317 150.924C296.317 155.245 299.958 158.779 304.487 158.779Z" fill="white" stroke="black"/>
    <path d="M325.616 158.779C330.144 158.779 333.782 155.245 333.782 150.924C333.782 146.603 330.144 143.069 325.616 143.069C321.088 143.069 317.446 146.604 317.446 150.924C317.446 155.245 321.088 158.779 325.616 158.779Z" fill="white" stroke="black"/>
    <path d="M325.616 179.144C330.144 179.144 333.782 175.61 333.782 171.289C333.782 166.968 330.144 163.434 325.616 163.434C321.088 163.434 317.446 166.968 317.446 171.289C317.446 175.609 321.088 179.144 325.616 179.144Z" fill="white" stroke="black"/>
    <path d="M325.616 199.513C330.144 199.513 333.782 195.979 333.782 191.658C333.782 187.337 330.144 183.803 325.616 183.803C321.088 183.803 317.446 187.338 317.446 191.658C317.446 195.979 321.088 199.513 325.616 199.513Z" fill="white" stroke="black"/>
    <path d="M325.616 219.884C330.144 219.884 333.782 216.349 333.782 212.029C333.782 207.708 330.144 204.174 325.616 204.174C321.088 204.174 317.446 207.708 317.446 212.029C317.446 216.349 321.088 219.884 325.616 219.884Z" fill="white" stroke="black"/>
    <path d="M346.746 219.884C351.274 219.884 354.912 216.349 354.912 212.029C354.912 207.708 351.274 204.174 346.746 204.174C342.218 204.174 338.576 207.708 338.576 212.029C338.576 216.349 342.218 219.884 346.746 219.884Z" fill="white" stroke="black"/>
    <path d="M346.746 199.513C351.274 199.513 354.912 195.979 354.912 191.658C354.912 187.337 351.274 183.803 346.746 183.803C342.218 183.803 338.576 187.338 338.576 191.658C338.576 195.979 342.218 199.513 346.746 199.513Z" fill="white" stroke="black"/>
    <path d="M325.616 240.248C330.144 240.248 333.782 236.714 333.782 232.393C333.782 228.072 330.144 224.538 325.616 224.538C321.088 224.538 317.446 228.072 317.446 232.393C317.446 236.713 321.088 240.248 325.616 240.248Z" fill="white" stroke="black"/>
    <path d="M325.616 260.616C330.144 260.616 333.782 257.082 333.782 252.761C333.782 248.44 330.144 244.906 325.616 244.906C321.088 244.906 317.446 248.441 317.446 252.761C317.446 257.082 321.088 260.616 325.616 260.616Z" fill="white" stroke="black"/>
    <path d="M325.616 280.983C330.144 280.983 333.782 277.448 333.782 273.128C333.782 268.807 330.144 265.273 325.616 265.273C321.088 265.273 317.446 268.807 317.446 273.128C317.446 277.448 321.088 280.983 325.616 280.983Z" fill="white" stroke="black"/>
    <path d="M304.487 280.983C309.014 280.983 312.653 277.448 312.653 273.128C312.653 268.807 309.014 265.273 304.487 265.273C299.958 265.273 296.317 268.807 296.317 273.128C296.317 277.448 299.958 280.983 304.487 280.983Z" fill="white" stroke="black"/>
    <path d="M304.487 260.616C309.014 260.616 312.653 257.082 312.653 252.761C312.653 248.44 309.014 244.906 304.487 244.906C299.958 244.906 296.317 248.441 296.317 252.761C296.317 257.082 299.958 260.616 304.487 260.616Z" fill="white" stroke="black"/>
    <path d="M283.356 260.616C287.884 260.616 291.523 257.082 291.523 252.761C291.523 248.44 287.884 244.906 283.356 244.906C278.828 244.906 275.187 248.441 275.187 252.761C275.187 257.082 278.828 260.616 283.356 260.616Z" fill="white" stroke="black"/>
    <path d="M283.356 240.248C287.884 240.248 291.523 236.714 291.523 232.393C291.523 228.072 287.884 224.538 283.356 224.538C278.828 224.538 275.187 228.072 275.187 232.393C275.187 236.713 278.828 240.248 283.356 240.248Z" fill="white" stroke="black"/>
    <path d="M304.487 240.248C309.014 240.248 312.653 236.714 312.653 232.393C312.653 228.072 309.014 224.538 304.487 224.538C299.958 224.538 296.317 228.072 296.317 232.393C296.317 236.713 299.958 240.248 304.487 240.248Z" fill="white" stroke="black"/>
    <path d="M304.487 219.884C309.014 219.884 312.653 216.349 312.653 212.029C312.653 207.708 309.014 204.174 304.487 204.174C299.958 204.174 296.317 207.708 296.317 212.029C296.317 216.349 299.958 219.884 304.487 219.884Z" fill="white" stroke="black"/>
    <path d="M283.356 219.884C287.884 219.884 291.523 216.349 291.523 212.029C291.523 207.708 287.884 204.174 283.356 204.174C278.828 204.174 275.187 207.708 275.187 212.029C275.187 216.349 278.828 219.884 283.356 219.884Z" fill="white" stroke="black"/>
    <path d="M283.356 199.513C287.884 199.513 291.523 195.979 291.523 191.658C291.523 187.337 287.884 183.803 283.356 183.803C278.828 183.803 275.187 187.338 275.187 191.658C275.187 195.979 278.828 199.513 283.356 199.513Z" fill="white" stroke="black"/>
    <path d="M304.487 199.513C309.014 199.513 312.653 195.979 312.653 191.658C312.653 187.337 309.014 183.803 304.487 183.803C299.958 183.803 296.317 187.338 296.317 191.658C296.317 195.979 299.958 199.513 304.487 199.513Z" fill="white" stroke="black"/>
    <path d="M304.487 179.144C309.014 179.144 312.653 175.61 312.653 171.289C312.653 166.968 309.014 163.434 304.487 163.434C299.958 163.434 296.317 166.968 296.317 171.289C296.317 175.609 299.958 179.144 304.487 179.144Z" fill="white" stroke="black"/>
    <path d="M283.356 179.144C287.884 179.144 291.523 175.61 291.523 171.289C291.523 166.968 287.884 163.434 283.356 163.434C278.828 163.434 275.187 166.968 275.187 171.289C275.187 175.609 278.828 179.144 283.356 179.144Z" fill="white" stroke="black"/>
    <path d="M262.227 179.144C266.755 179.144 270.394 175.61 270.394 171.289C270.394 166.968 266.755 163.434 262.227 163.434C257.699 163.434 254.058 166.968 254.058 171.289C254.058 175.609 257.699 179.144 262.227 179.144Z" fill="white" stroke="black"/>
    <path d="M262.227 199.513C266.755 199.513 270.394 195.979 270.394 191.658C270.394 187.337 266.755 183.803 262.227 183.803C257.699 183.803 254.058 187.338 254.058 191.658C254.058 195.979 257.699 199.513 262.227 199.513Z" fill="white" stroke="black"/>
    <path d="M241.097 179.144C245.625 179.144 249.263 175.61 249.263 171.289C249.263 166.968 245.625 163.434 241.097 163.434C236.569 163.434 232.927 166.968 232.927 171.289C232.927 175.609 236.569 179.144 241.097 179.144Z" fill="white" stroke="black"/>
    <path d="M219.967 179.144C224.495 179.144 228.134 175.61 228.134 171.289C228.134 166.968 224.495 163.434 219.967 163.434C215.439 163.434 211.798 166.968 211.798 171.289C211.798 175.609 215.439 179.144 219.967 179.144Z" fill="white" stroke="black"/>
    <path d="M346.744 423.55C351.272 423.55 354.911 420.016 354.911 415.695C354.911 411.374 351.272 407.84 346.744 407.84C342.216 407.84 338.575 411.375 338.575 415.695C338.575 420.016 342.216 423.55 346.744 423.55Z" fill="white" stroke="black"/>
    <path d="M346.746 403.184C351.274 403.184 354.912 399.65 354.912 395.329C354.912 391.008 351.274 387.474 346.746 387.474C342.218 387.474 338.576 391.008 338.576 395.329C338.576 399.649 342.218 403.184 346.746 403.184Z" fill="white" stroke="black"/>
    <path d="M367.876 403.184C372.404 403.184 376.042 399.65 376.042 395.329C376.042 391.008 372.404 387.474 367.876 387.474C363.348 387.474 359.706 391.008 359.706 395.329C359.706 399.649 363.348 403.184 367.876 403.184Z" fill="white" stroke="black"/>
    <path d="M367.876 382.817C372.404 382.817 376.042 379.282 376.042 374.962C376.042 370.641 372.404 367.107 367.876 367.107C363.348 367.107 359.706 370.641 359.706 374.962C359.706 379.282 363.348 382.817 367.876 382.817Z" fill="white" stroke="black"/>
    <path d="M346.746 382.817C351.274 382.817 354.912 379.282 354.912 374.962C354.912 370.641 351.274 367.107 346.746 367.107C342.218 367.107 338.576 370.641 338.576 374.962C338.576 379.282 342.218 382.817 346.746 382.817Z" fill="white" stroke="black"/>
    <path d="M346.746 362.451C351.274 362.451 354.912 358.916 354.912 354.596C354.912 350.275 351.274 346.74 346.746 346.74C342.218 346.74 338.576 350.275 338.576 354.596C338.576 358.916 342.218 362.451 346.746 362.451Z" fill="white" stroke="black"/>
    <path d="M346.746 342.081C351.274 342.081 354.912 338.547 354.912 334.226C354.912 329.905 351.274 326.371 346.746 326.371C342.218 326.371 338.576 329.905 338.576 334.226C338.576 338.546 342.218 342.081 346.746 342.081Z" fill="white" stroke="black"/>
    <path d="M346.746 321.715C351.274 321.715 354.912 318.181 354.912 313.86C354.912 309.54 351.274 306.005 346.746 306.005C342.218 306.005 338.576 309.54 338.576 313.86C338.576 318.181 342.218 321.715 346.746 321.715Z" fill="white" stroke="black"/>
    <path d="M367.876 321.715C372.404 321.715 376.042 318.181 376.042 313.86C376.042 309.54 372.404 306.005 367.876 306.005C363.348 306.005 359.706 309.54 359.706 313.86C359.706 318.181 363.348 321.715 367.876 321.715Z" fill="white" stroke="black"/>
    <path d="M367.876 301.348C372.404 301.348 376.043 297.813 376.043 293.493C376.043 289.172 372.404 285.637 367.876 285.637C363.348 285.637 359.707 289.172 359.707 293.493C359.707 297.813 363.348 301.348 367.876 301.348Z" fill="white" stroke="black"/>
    <path d="M367.876 280.983C372.404 280.983 376.042 277.448 376.042 273.128C376.042 268.807 372.404 265.273 367.876 265.273C363.348 265.273 359.706 268.807 359.706 273.128C359.706 277.448 363.348 280.983 367.876 280.983Z" fill="white" stroke="black"/>
    <path d="M389.005 280.983C393.533 280.983 397.172 277.448 397.172 273.128C397.172 268.807 393.533 265.273 389.005 265.273C384.477 265.273 380.836 268.807 380.836 273.128C380.836 277.448 384.477 280.983 389.005 280.983Z" fill="white" stroke="black"/>
    <path d="M367.876 260.616C372.404 260.616 376.042 257.082 376.042 252.761C376.042 248.44 372.404 244.906 367.876 244.906C363.348 244.906 359.706 248.441 359.706 252.761C359.706 257.082 363.348 260.616 367.876 260.616Z" fill="white" stroke="black"/>
    <path d="M72.0615 219.884C76.5894 219.884 80.2279 216.349 80.2279 212.029C80.2279 207.708 76.5894 204.174 72.0615 204.174C67.5334 204.174 63.8918 207.708 63.8918 212.029C63.8918 216.349 67.5334 219.884 72.0615 219.884Z" fill="white" stroke="black"/>
    <path d="M515.781 240.248C520.309 240.248 523.947 236.714 523.947 232.393C523.947 228.072 520.309 224.538 515.781 224.538C511.253 224.538 507.611 228.072 507.611 232.393C507.611 236.713 511.253 240.248 515.781 240.248Z" fill="white" stroke="black"/>
    <path d="M536.909 219.884C541.437 219.884 545.076 216.349 545.076 212.029C545.076 207.708 541.437 204.174 536.909 204.174C532.381 204.174 528.74 207.708 528.74 212.029C528.74 216.349 532.381 219.884 536.909 219.884Z" fill="white" stroke="black"/>
    <path d="M177.709 260.616C182.237 260.616 185.876 257.082 185.876 252.761C185.876 248.44 182.237 244.906 177.709 244.906C173.181 244.906 169.54 248.441 169.54 252.761C169.54 257.082 173.181 260.616 177.709 260.616Z" fill="white" stroke="black"/>
    <path d="M135.449 219.884C139.977 219.884 143.616 216.349 143.616 212.029C143.616 207.708 139.977 204.174 135.449 204.174C130.921 204.174 127.28 207.708 127.28 212.029C127.28 216.349 130.921 219.884 135.449 219.884Z" fill="white" stroke="black"/>
    <path d="M114.32 219.884C118.848 219.884 122.487 216.349 122.487 212.029C122.487 207.708 118.848 204.174 114.32 204.174C109.792 204.174 106.151 207.708 106.151 212.029C106.151 216.349 109.792 219.884 114.32 219.884Z" fill="white" stroke="black"/>
    <path d="M93.1897 219.884C97.7176 219.884 101.356 216.349 101.356 212.029C101.356 207.708 97.7176 204.174 93.1897 204.174C88.6615 204.174 85.02 207.708 85.02 212.029C85.02 216.349 88.6615 219.884 93.1897 219.884Z" fill="white" stroke="black"/>
    <path d="M198.839 16.2104C203.367 16.2104 207.005 12.676 207.005 8.35532C207.005 4.03462 203.367 0.500185 198.839 0.500185C194.311 0.500185 190.669 4.03486 190.669 8.35532C190.669 12.6758 194.311 16.2104 198.839 16.2104Z" fill="white" stroke="black"/>
</svg>
