<svg id="Logo_full" xmlns="http://www.w3.org/2000/svg" width="203.788" height="59.518" viewBox="0 0 203.788 59.518">
    <g id="Group_3402" data-name="Group 3402">
      <g id="Group_3398" data-name="Group 3398" transform="translate(61.289 6.652)">
        <path id="Path_11107" data-name="Path 11107" d="M592.412,595.869a32.756,32.756,0,0,1-5.3,1.675,24.342,24.342,0,0,1-5.343.611,16.541,16.541,0,0,1-4.279-.543,9.531,9.531,0,0,1-3.532-1.721,8.6,8.6,0,0,1-2.377-2.989,9.929,9.929,0,0,1-.883-4.392V569.923h5.887v18.7a4.055,4.055,0,0,0,.589,2.015A4.849,4.849,0,0,0,578.534,592a5.6,5.6,0,0,0,1.879.792,8.665,8.665,0,0,0,2.173.272,8.266,8.266,0,0,0,2.106-.272,8.956,8.956,0,0,0,1.9-.7V569.9h5.819Z" transform="translate(-570.7 -559.259)" fill="#040dbf"/>
        <path id="Path_11108" data-name="Path 11108" d="M689.9,526.636a3.653,3.653,0,0,1,1.064-2.672,3.857,3.857,0,0,1,5.32,0,3.918,3.918,0,0,1,0,5.321,3.8,3.8,0,0,1-5.32,0A3.675,3.675,0,0,1,689.9,526.636Zm6.747,6.951v27.689H690.76V533.586Z" transform="translate(-662.912 -522.9)" fill="#040dbf"/>
        <path id="Path_11109" data-name="Path 11109" d="M759.684,595.481a13.388,13.388,0,0,1-5.071.951,14.034,14.034,0,0,1-3.985-.589,10.9,10.9,0,0,1-3.509-1.766,8.877,8.877,0,0,1-2.49-2.921,8.274,8.274,0,0,1-.928-4.03v-9.781a9.917,9.917,0,0,1,.906-4.46,8.191,8.191,0,0,1,2.468-2.989,10.1,10.1,0,0,1,3.555-1.675,16.243,16.243,0,0,1,4.256-.543,23.573,23.573,0,0,1,5.592.566,24.448,24.448,0,0,1,5.094,1.675v35h-5.887Zm0-21.758a12.465,12.465,0,0,0-2.2-.7,8.541,8.541,0,0,0-2.4-.2,9.045,9.045,0,0,0-2.083.249,5.227,5.227,0,0,0-1.766.77,3.934,3.934,0,0,0-1.2,1.381,4.367,4.367,0,0,0-.453,2.038v9.894a3.673,3.673,0,0,0,1.9,3.124,8.209,8.209,0,0,0,3.826,1,9.333,9.333,0,0,0,2.241-.136,14.644,14.644,0,0,0,2.128-.5Z" transform="translate(-704.532 -557.536)" fill="#040dbf"/>
        <path id="Path_11110" data-name="Path 11110" d="M867.2,569.935a26.417,26.417,0,0,1,5.049-1.653,23.614,23.614,0,0,1,5.592-.589,16.023,16.023,0,0,1,4.211.543,10.817,10.817,0,0,1,3.577,1.653,8.2,8.2,0,0,1,2.49,2.966,9.752,9.752,0,0,1,.928,4.505v9.781a8.47,8.47,0,0,1-.928,4.03,9.332,9.332,0,0,1-2.468,2.921,10.449,10.449,0,0,1-3.464,1.766,13.689,13.689,0,0,1-3.917.589,11.525,11.525,0,0,1-2.672-.2,16.041,16.041,0,0,1-2.513-.747v9.464H867.2Zm5.886,20.693a13.7,13.7,0,0,0,2.06.5,10.022,10.022,0,0,0,2.173.136,8.2,8.2,0,0,0,3.917-.928,3.711,3.711,0,0,0,1.947-3.17v-9.894a4.169,4.169,0,0,0-.475-2.038,4.08,4.08,0,0,0-1.245-1.381,5.1,5.1,0,0,0-1.789-.77,9.285,9.285,0,0,0-2.128-.249,10.439,10.439,0,0,0-4.438.906v16.89Z" transform="translate(-800.071 -557.551)" fill="#040dbf"/>
        <path id="Path_11111" data-name="Path 11111" d="M997.149,577.083a3.352,3.352,0,0,0-.475-1.789,3.906,3.906,0,0,0-1.29-1.291,6.009,6.009,0,0,0-1.834-.747,9.839,9.839,0,0,0-2.173-.249,9.162,9.162,0,0,0-3.215.566,6.53,6.53,0,0,0-2.626,1.743l-3.305-3.419a10.851,10.851,0,0,1,4.732-3.306,16.407,16.407,0,0,1,5.162-.792,14.009,14.009,0,0,1,3.985.566,11.685,11.685,0,0,1,3.509,1.675,8.56,8.56,0,0,1,2.49,2.83,8.437,8.437,0,0,1,.928,4.053v17.75a30.76,30.76,0,0,1-4.687,1.313,28.122,28.122,0,0,1-5.8.566,21.087,21.087,0,0,1-4.211-.408,10.7,10.7,0,0,1-3.577-1.358,7.23,7.23,0,0,1-2.513-2.581,8.013,8.013,0,0,1-.951-4.1,8.041,8.041,0,0,1,3.215-6.724,10.138,10.138,0,0,1,3.283-1.63,13.236,13.236,0,0,1,3.758-.543,15.994,15.994,0,0,1,2.943.272,13.605,13.605,0,0,1,2.672.792v-3.192Zm0,7.811a9.805,9.805,0,0,0-2.174-.7,12.176,12.176,0,0,0-2.581-.272,6.034,6.034,0,0,0-3.962,1.155,3.679,3.679,0,0,0-1.381,2.966,3,3,0,0,0,.43,1.653,3.675,3.675,0,0,0,1.155,1.132,4.688,4.688,0,0,0,1.63.611,8.817,8.817,0,0,0,1.924.181,20.633,20.633,0,0,0,2.717-.159,16.466,16.466,0,0,0,2.241-.43Z" transform="translate(-888.338 -557.634)" fill="#040dbf"/>
        <path id="Path_11112" data-name="Path 11112" d="M1124.5,598.265a10.53,10.53,0,0,1-.928,4.551,9.134,9.134,0,0,1-2.49,3.17,10.5,10.5,0,0,1-3.555,1.879,14.118,14.118,0,0,1-4.143.611,16.2,16.2,0,0,1-6.181-1.245,9.782,9.782,0,0,1-4.573-3.758l3.532-3.373a7.3,7.3,0,0,0,3.238,2.377,10.192,10.192,0,0,0,4.1.77,5.97,5.97,0,0,0,2.173-.408,4.835,4.835,0,0,0,1.789-1.177,5.261,5.261,0,0,0,1.155-1.879,5.857,5.857,0,0,0,.294-2.49,15.435,15.435,0,0,1-5.071,1.019,13.817,13.817,0,0,1-4.188-.634,11.483,11.483,0,0,1-3.668-1.879,9.718,9.718,0,0,1-2.581-3.011,8.5,8.5,0,0,1-1-4.143V570.1h5.886v18.588a3.758,3.758,0,0,0,.589,1.879,4.576,4.576,0,0,0,1.381,1.336,5.931,5.931,0,0,0,1.9.792,8.4,8.4,0,0,0,2.106.272,9.429,9.429,0,0,0,2.4-.317,6.474,6.474,0,0,0,2.038-.906V570.1h5.818v28.165Z" transform="translate(-982.02 -559.414)" fill="#040dbf"/>
      </g>
      <g id="Group_3401" data-name="Group 3401">
        <g id="Group_3399" data-name="Group 3399">
          <path id="Path_11113" data-name="Path 11113" d="M309.053,500.872a27.989,27.989,0,0,1,45.394,29.7,27.158,27.158,0,0,1-3.577,7.041c-.068-.045-8.558-5.592-12.7-8.332a13.863,13.863,0,0,0,2.762-5.23,12.915,12.915,0,0,0-.317-6.5,13.377,13.377,0,0,0-6.43-7.743,13.213,13.213,0,1,0-1.947,24.18,8.973,8.973,0,0,0,2.717-1.539,28.783,28.783,0,0,1,5.139,6.973,18.993,18.993,0,0,1,2.038,6.724c.091.747.045,1.517.068,2.287,4.188.2,8.377.475,12.543.724.453,1.291.86,2.581,1.29,3.872q-16.777-2.072-33.553-4.1a28,28,0,0,1-22.369-24.859,28.446,28.446,0,0,1,.86-9.962A28.067,28.067,0,0,1,309.053,500.872Z" transform="translate(-299.996 -493.518)" fill="#040dbf"/>
        </g>
        <g id="Group_3400" data-name="Group 3400" transform="translate(34.958 38.96)">
          <path id="Path_11114" data-name="Path 11114" d="M454.4,665.6c5.253,1.63,15.848,5.094,15.916,5.139,3.079,3.939,6.113,7.9,9.169,11.864-1.766-.113-3.532-.2-5.3-.317-4.189-.226-8.354-.5-12.543-.724a19.293,19.293,0,0,0-.068-2.287,18.543,18.543,0,0,0-2.038-6.724A29.566,29.566,0,0,0,454.4,665.6Z" transform="translate(-454.4 -665.6)" fill="#ffd432"/>
        </g>
      </g>
    </g>
  </svg>
  